<?xml version="1.0" encoding="utf-8"?>
<!-- Generator: Adobe Illustrator 16.0.0, SVG Export Plug-In . SVG Version: 6.00 Build 0)  -->
<!DOCTYPE svg PUBLIC "-//W3C//DTD SVG 1.1//EN" "http://www.w3.org/Graphics/SVG/1.1/DTD/svg11.dtd">
<svg version="1.1" id="Layer_1" xmlns="http://www.w3.org/2000/svg" xmlns:xlink="http://www.w3.org/1999/xlink" x="0px" y="0px"
	 width="8344px" height="2588px" viewBox="0 0 8344 2588" enable-background="new 0 0 8344 2588" xml:space="preserve">
<g>
	<g>
		<g>
			<path fill="#231F20" d="M1012.323,700.468l-60.646,39.59l-6.054-9.273c6.572-4.29,10.594-7.554,12.057-9.799
				c2.12-3.219,1.836-6.896-0.849-11.016l-67.467-103.323l-58.522,38.202l67.653,103.204c2.608,3.996,5.569,5.726,8.91,5.204
				c3.326-0.521,8.218-2.885,14.647-7.084l6.063,9.269l-60.655,39.59l-6.052-9.266c6.57-4.287,10.588-7.561,12.061-9.807
				c2.122-3.219,1.834-6.885-0.858-11.01l-62.417-95.601c-3.36-5.148-7.605-7.338-12.727-6.57c-3.263,0.479-7.457,2.396-12.597,5.75
				l-6.049-9.271l144.28-94.199l6.044,9.271c-4.892,3.201-8.178,6.173-9.871,8.926c-2.816,4.416-2.538,9.199,0.824,14.335
				l62.409,95.607c2.62,3.995,5.602,5.714,8.962,5.179c3.349-0.546,8.292-2.939,14.803-7.183L1012.323,700.468z"/>
		</g>
		<g>
			<path fill="#231F20" d="M609.602,943.196c5.877-2.482,12.253-4.3,19.146-5.466c6.886-1.167,12.828-1.471,17.82-0.9
				c3.018,0.323,5.79,0.906,8.318,1.743c2.542,0.851,5.198,2.078,7.999,3.691c4.394,2.536,8.724,6.1,12.999,10.698
				c6.983,7.586,11.382,16.879,13.201,27.868c1.578,9.269,0.59,18.367-2.978,27.312c-0.183,0.61-0.995,2.624-2.436,6.054
				c-1.444,3.43-2.784,6.209-4.013,8.336c-2.462,4.263-5.242,7.985-8.324,11.179c-3.088,3.19-7.124,6.18-12.107,8.99
				c-9.836,5.327-20.984,8.04-33.464,8.114c-9.563-0.03-18.098-1.4-25.589-4.123c-3.625-1.383-7.175-3.086-10.64-5.093
				c-5.464-3.146-9.987-6.996-13.572-11.556c-2.177-2.679-4.633-6.581-7.355-11.711c-2.717-5.12-4.355-11.661-4.917-19.622
				c-0.342-4.629-0.251-9.55,0.27-14.753c0.516-5.204,1.747-10.94,3.667-17.199c1.927-6.256,4.386-11.98,7.396-17.175l31.599-54.732
				l23.171,13.378L609.602,943.196z M662.563,980.181c-3.402-3.933-7.975-7.555-13.701-10.86
				c-6.926-4.001-13.669-6.469-20.231-7.419c-9.296-1.107-20.062,0.311-32.284,4.263c-3.077,5.327-4.997,9.104-5.75,11.33
				c-1.986,5.596-2.375,11.333-1.134,17.183c1.079,4.895,3.425,9.223,7.021,12.988c3.598,3.766,7.325,6.76,11.184,8.99
				c1.469,0.847,2.407,1.381,2.802,1.613c7.723,4.46,15.787,6.8,24.181,7.015c6.684,0.12,13.098-0.994,19.234-3.327
				c3.339-1.458,5.679-2.603,7.045-3.418c2.578-1.717,4.763-4.109,6.542-7.189c1.237-2.133,2.342-5.058,3.33-8.77
				c0.993-3.703,0.411-7.865-1.712-12.485C667.509,986.694,665.333,983.381,662.563,980.181z M609.602,943.196l-4.839,8.384
				l-4.794-2.772C602.08,947.016,605.288,945.136,609.602,943.196z"/>
		</g>
		<g>
			<path fill="#231F20" d="M1141.14,2098.621l-69.313-20.996l3.218-10.598c7.5,2.273,12.584,3.254,15.257,2.934
				c3.829-0.439,6.458-3.02,7.883-7.734l15.117-49.885l-60.049-18.199l-15.112,49.898c-1.388,4.559-0.809,7.941,1.732,10.166
				c2.543,2.217,7.497,4.439,14.856,6.666l-3.212,10.598l-69.312-21l3.209-10.6c7.506,2.277,12.592,3.26,15.26,2.936
				c3.826-0.439,6.456-3.02,7.887-7.727l34.032-112.375c1.388-4.553,0.804-7.945-1.732-10.16c-2.54-2.221-7.491-4.439-14.851-6.668
				l3.208-10.596l69.314,20.996l-3.214,10.598c-7.506-2.273-12.879-3.219-16.127-2.834c-3.244,0.383-5.585,2.924-7.015,7.633
				l-14.107,46.578l60.045,18.193l14.11-46.58c1.384-4.564,0.807-7.951-1.739-10.166c-2.542-2.221-7.5-4.439-14.852-6.668
				l3.211-10.6l69.307,20.996l-3.203,10.6c-7.507-2.27-12.884-3.217-16.128-2.838c-3.253,0.381-5.59,2.93-7.015,7.633
				l-34.041,112.369c-1.383,4.563-0.807,7.949,1.737,10.17c2.546,2.211,7.493,4.439,14.853,6.666L1141.14,2098.621z"/>
		</g>
		<g>
			<path fill="#231F20" d="M1963.562,1067.546l-53.265,13.988l-57.471-124.121l100.17,28.596l48.324-93.804l54.573,117.837
				l-36.727,20.052l-4.555-9.831c5.929-4.775,9.841-8.964,11.736-12.543c3.211-6.236,2.945-13.412-0.8-21.492l-18.32-39.566
				l-32.44,63.317l-76.174-21.743l25.324,54.663c3.102,6.709,6.614,11.013,10.561,12.924c5.074,2.564,13.186,3.051,24.309,1.457
				L1963.562,1067.546z"/>
		</g>
		<g>
			<path fill="#231F20" d="M1550.182,2048.621c-2.516,7.787-6.384,14.139-11.591,19.035c-5.217,4.898-11.289,8.365-18.217,10.402
				c-6.944,2.033-13.92,2.412-20.959,1.121c-7.033-1.311-13.639-4.572-19.822-9.805c-8.422-6.824-15.689-15.307-21.786-25.449
				c-6.114-10.141-10.86-20.979-14.247-32.48c-3.807-12.984-5.742-25.799-5.769-38.457c-0.036-12.643,1.894-23.555,5.769-32.709
				c2.287-5.324,6.055-10.197,11.328-14.635c5.266-4.432,11.213-7.619,17.857-9.57c6.934-2.041,13.609-2.643,20.029-1.809
				c6.416,0.846,12.389,3.018,17.904,6.521c8.262,5.748,15.78,13.873,22.554,24.387c6.777,10.504,12.102,22.33,15.964,35.455
				c3.505,11.953,5.407,23.609,5.712,34.986C1555.208,2026.988,1553.626,2037.992,1550.182,2048.621z M1498.482,1937.355
				c-3.878-3.355-7.59-5.502-11.149-6.457c-3.573-0.951-6.99-0.951-10.229,0c-3.097,0.91-5.941,2.787-8.558,5.637
				c-2.607,2.857-4.523,6.551-5.764,11.076c-1.227,4.525-1.113,12.027,0.363,22.492c1.479,10.463,4.059,21.971,7.744,34.51
				c3.082,10.477,6.568,20.031,10.463,28.656c3.898,8.631,8.162,15.637,12.79,21.006c7.201,8.137,14.488,11.127,21.865,8.955
				c3.244-0.955,6.155-3.205,8.708-6.77c2.567-3.551,4.125-7.656,4.678-12.309c1.072-6.723,0.837-15.146-0.695-25.283
				c-1.539-10.121-3.776-20.201-6.737-30.234c-3.505-11.959-7.474-22.725-11.896-32.318
				C1505.636,1946.709,1501.778,1940.398,1498.482,1937.355z"/>
		</g>
		<g>
			<path fill="#231F20" d="M1670.636,764.504l-57.979-37.787l6.044-9.274c6.312,4.113,11.459,6.228,15.432,6.326
				c3.965,0.107,7.213-1.772,9.733-5.643l59.784-91.737c0.923-1.427,0.676-2.599-0.742-3.524l-1.794-0.612l-18.414-4.28l6.052-9.291
				l45.293,3.598l7.146,4.652l-75.307,115.565c-3.107,4.771-2.889,9.502,0.665,14.198c1.983,2.588,5.362,5.421,10.134,8.53
				L1670.636,764.504z"/>
		</g>
		<g>
			<path fill="#231F20" d="M578.409,1392.773l80.696,21.797l5.041,28.773l-126.608-33.461c-8,3.305-12.653,5.301-13.935,5.996
				c-7.609,3.693-12.375,7.203-14.285,10.51c-0.757,1.07-1.32,2.459-1.72,4.174c-0.401,1.707-0.453,3.396-0.154,5.064
				c0.348,1.973,1.391,4.051,3.099,6.232c1.724,2.203,3.916,3.764,6.578,4.695c5.927,0.82,10.728,1.451,14.394,1.887l1.861,10.449
				c-10.744,1.912-21.428,1.627-32.018-0.861c-5.369-1.23-9.53-3.297-12.47-6.219c-2.934-2.906-4.772-6.408-5.502-10.504
				c-0.961-5.438,0.04-11.047,2.999-16.813c2.962-5.758,6.985-10.18,12.063-13.275c11.302-6.854,24.354-13.471,39.174-19.859
				c4.633-2.072,17.487-7.172,38.569-15.299c14.502-5.549,25.161-10.018,31.986-13.426c6.823-3.398,11.197-7.145,13.138-11.236
				c0.34-0.686,0.753-1.854,1.25-3.508c0.493-1.645,0.596-3.225,0.327-4.742c-0.269-1.514-0.814-2.82-1.651-3.926
				c-1.939-2.928-5.025-4.723-9.249-5.373c-3.383-0.344-6.846-0.664-10.381-0.969l-1.813-10.221
				c7.757-1.383,13.882-2.078,18.344-2.098c4.479-0.02,9.22,0.807,14.227,2.486c5.006,1.682,9.047,4.313,12.106,7.883
				c3.071,3.584,4.987,7.482,5.734,11.705c0.837,4.678-0.087,9.393-2.757,14.152c-2.669,4.754-5.999,8.459-9.995,11.111
				c-3.98,2.66-12.204,6.572-24.655,11.742C600.341,1384.818,588.875,1389.193,578.409,1392.773z M578.409,1392.773l-8.264,2.873
				l-0.883-5.055L578.409,1392.773z"/>
		</g>
		<g>
			<path fill="#231F20" d="M2017.832,1457.896c-0.959,7.809-8.3,13.844-16.106,12.889c-9.107-1.117-14.085-8.992-13.007-17.777
				c0.758-6.176,11.624-16.742,15.703-44.635c-37.884,15.494-32.127,30.402-47.419,28.527c-8.135-0.998-14.121-8.668-13.128-16.797
				c2.474-20.172,25.394-7.787,56.707-20.787c-24.552-17.871-35.563-14.271-43.099-20.146c-4.851-3.568-6.85-8.764-6.213-13.967
				c1.077-8.783,9.275-13.729,17.088-12.77c11.386,1.396,16.355,22.809,38.467,39.059c1.596-13.012,1.074-24.963-1.471-33.863
				c-1.83-3.852-3.029-10.277-2.592-13.855c1.039-8.461,8.025-14.201,16.478-13.162c8.459,1.035,14.169,8.33,13.134,16.797
				c-0.443,3.574-3.387,8.828-5.868,12.818c-5.347,8.59-7.921,18.84-9.922,32.463c33.827-14.672,32.456-30.365,46.766-28.609
				c8.126,1,14.494,8.385,13.495,16.518c-2.553,20.822-18.482,5.328-56.098,21.191c29.906,22.82,52.641,12.402,49.972,34.195
				c-1.081,8.779-9.243,13.395-17.048,12.436c-5.202-0.635-9.841-3.186-15.085-14.393c-3.14-6.658-12.181-16.354-24.401-24.457
				C2010.912,1436.248,2018.745,1450.42,2017.832,1457.896z"/>
		</g>
		<g>
			<g>
				<path fill="#231F20" d="M1291.118,465.158c23.157,0,42.25,7.479,57.271,22.423c15.023,14.947,22.535,33.63,22.535,56.053
					c0,19.539-5.881,36.52-17.654,50.947c-11.767,14.429-25.932,23.055-42.506,25.865c3.4,9.837,8.691,17.236,15.874,22.199
					c7.175,4.95,16.163,7.432,26.971,7.432c2.956,0,6.107-0.299,9.43-0.887v6.773c-11.169,2.809-21.162,4.211-29.968,4.211
					c-13.76,0-26.064-3.362-36.908-10.098c-10.841-6.73-18.999-16.611-24.474-29.631c-18.203-3.846-32.875-12.765-44.011-26.752
					c-11.138-13.986-16.702-30.672-16.702-50.061c0-22.491,7.551-41.198,22.646-56.11
					C1248.715,472.612,1267.881,465.158,1291.118,465.158 M1291.007,614.225c11.241,0,20.013-4.249,26.303-12.757
					c9.104-12.214,13.658-30.562,13.658-55.063c0-24.122-2.854-41.582-8.551-52.388c-7.102-13.613-17.575-20.418-31.41-20.418
					c-13.325,0-23.61,6.915-30.86,20.753c-6.066,11.618-9.104,28.153-9.104,49.616c0,25.747,4.55,44.844,13.656,57.274
					C1271.06,609.896,1279.827,614.225,1291.007,614.225 M1291.118,455.629c-25.729,0-47.323,8.452-64.19,25.119
					c-16.906,16.694-25.479,37.854-25.479,62.886c0,21.51,6.317,40.35,18.774,55.998c11.513,14.454,26.54,24.195,44.726,29.002
					c6.191,12.66,14.985,22.584,26.192,29.537c12.313,7.65,26.422,11.53,41.931,11.53c9.56,0,20.424-1.513,32.293-4.5l7.205-1.812
					v-7.426v-6.773v-11.365l-11.189,1.982c-2.776,0.493-5.389,0.742-7.771,0.742c-8.779,0-16.032-1.933-21.563-5.748
					c-3.01-2.079-5.576-4.728-7.73-8c13.817-4.752,26.006-13.528,36.341-26.198c13.133-16.099,19.796-35.269,19.796-56.97
					c0-24.944-8.526-46.073-25.344-62.81C1338.302,464.105,1316.773,455.629,1291.118,455.629L1291.118,455.629z M1291.007,604.698
					c-8.146,0-14.067-2.891-18.634-9.099c-7.828-10.686-11.799-28.061-11.799-51.631c0-19.809,2.699-35.018,8.016-45.206
					c7.345-14.015,16.313-15.636,22.417-15.636c10.222,0,17.521,4.859,22.962,15.299c4.962,9.413,7.472,25.542,7.472,47.979
					c0,22.283-3.963,38.891-11.77,49.367C1305.163,601.872,1299.238,604.698,1291.007,604.698L1291.007,604.698z"/>
			</g>
		</g>
		<g>
			<g>
				<path fill="#231F20" d="M1816.503,1692.969l3.176,2.607c-4.409,5.379-6.901,9.439-7.469,12.172
					c-0.576,2.742-0.373,5.154,0.598,7.24c0.959,2.086,4.589,5.713,10.896,10.873l75.53,61.928
					c6.294,5.16,10.575,8.021,12.839,8.586c0.748,0.188,1.512,0.279,2.291,0.279c1.583,0,3.232-0.383,4.959-1.156
					c2.568-1.146,6.039-4.379,10.396-9.701l3.173,2.602l-41.593,50.736c-13.695,16.699-26.5,26.254-38.406,28.646
					c-2.931,0.586-5.771,0.877-8.515,0.877c-8.433,0-16.015-2.758-22.739-8.281c-7.554-6.188-12.101-13.842-13.631-22.936
					c-1.529-9.111,0.104-18.574,4.913-28.416c3.185-6.67,10.187-16.617,21.024-29.84l-32.273-26.455
					c-6.294-5.166-10.578-8.031-12.839-8.594c-0.732-0.182-1.484-0.275-2.249-0.275c-1.605,0-3.284,0.4-5.034,1.193
					c-2.586,1.176-6.047,4.395-10.358,9.662l-3.178-2.607L1816.503,1692.969 M1866.804,1841.465c0.462,0,0.923-0.016,1.379-0.045
					c7.104-0.494,13.734-4.488,19.879-11.982l2.881-3.521l-50.303-41.242c-1.659,1.797-2.888,3.18-3.691,4.154
					c-5.715,6.98-8.06,14.061-6.998,21.238c1.051,7.176,5.918,14.336,14.621,21.465
					C1852.655,1838.16,1860.068,1841.465,1866.804,1841.465 M1815.179,1679.555l-6.041,7.371l-48.486,59.143l-6.041,7.365
					l7.361,6.043l3.174,2.605l7.379,6.051l6.041-7.383c4.834-5.904,6.878-6.992,6.958-7.037c0.46-0.207,0.761-0.281,0.923-0.309
					c0.809,0.412,3.339,1.895,9.182,6.689l24.988,20.484c-8.049,10.279-13.402,18.287-16.293,24.348
					c-5.634,11.529-7.566,23.027-5.706,34.096c1.91,11.395,7.626,21.061,16.983,28.727c8.437,6.924,18.121,10.438,28.778,10.438
					c3.358,0,6.853-0.357,10.383-1.064c14.267-2.861,28.628-13.313,43.903-31.945l41.597-50.736l6.043-7.371l-7.371-6.037
					l-3.175-2.604l-7.371-6.041l-6.039,7.375c-4.853,5.92-6.881,7.018-6.964,7.063c-0.455,0.203-0.754,0.27-0.906,0.295
					c-0.795-0.404-3.319-1.875-9.209-6.699l-75.524-61.928c-5.838-4.777-7.771-6.949-8.314-7.648
					c-0.02-0.195-0.018-0.561,0.103-1.135c0.01-0.018,0.685-2.205,5.511-8.09l6.039-7.363l-7.36-6.041l-3.173-2.609
					L1815.179,1679.555L1815.179,1679.555z M1866.804,1831.938c-4.392,0-9.987-2.688-16.189-7.771
					c-6.668-5.465-10.553-10.813-11.242-15.482c-0.506-3.438,0.354-6.924,2.617-10.584l35.304,28.941
					c-3.265,3.012-6.538,4.65-9.772,4.873C1867.29,1831.932,1867.045,1831.938,1866.804,1831.938L1866.804,1831.938z"/>
			</g>
		</g>
		<g>
			<g>
				<path fill="#231F20" d="M751.778,1673.313l91.315,103.279l-165.276,27.891l14.774,16.723c5.734,6.48,9.708,10.58,11.909,12.289
					c4.153,3.242,8.802,5.621,13.943,7.146c3.255,0.957,6.58,1.439,9.981,1.439c1.988,0,4.003-0.164,6.041-0.494
					c5.542-0.891,11.578-3.102,18.144-6.631l2.723,3.074l-35.73,26.119l-78.738-89.064l165.032-27.834l-18.968-21.459
					c-8.966-10.141-15.88-16.674-20.735-19.594c-7.826-4.83-16.521-7.262-26.093-7.301c-0.055,0-0.114,0-0.171,0
					c-9.51,0-19.541,3.033-30.074,9.113l-2.865-3.244L751.778,1673.313 M753.272,1660.621l-6.97,4.895l-44.787,31.453l-8.718,6.123
					l7.049,7.98l2.865,3.244l5.156,5.838l6.747-3.893c9.019-5.203,17.535-7.84,25.313-7.84c7.991,0.035,14.904,1.957,21.262,5.879
					c2.841,1.713,8.283,6.133,18.601,17.803l7.605,8.607l-148.119,24.98l-16.915,2.854l11.363,12.852l78.736,89.063l5.753,6.504
					l7.009-5.123l35.73-26.119l8.448-6.176l-6.941-7.834l-2.723-3.072l-5-5.645l-6.643,3.572c-5.601,3.008-10.693,4.9-15.141,5.613
					c-1.538,0.25-3.058,0.373-4.53,0.373c-2.47,0-4.92-0.354-7.288-1.053c-4.016-1.191-7.546-2.998-10.774-5.518
					c-0.803-0.621-3.402-2.914-10.634-11.088l-3.417-3.873l148.367-25.035l16.915-2.854l-11.363-12.854l-91.317-103.277
					L753.272,1660.621L753.272,1660.621z"/>
			</g>
		</g>
		<path fill="#231F20" d="M1946.98,637.968c-175.088-175.093-408.074-271.519-656.03-271.519s-480.938,96.426-656.03,271.519
			C459.829,813.06,363.399,1046.044,363.399,1294c0,247.959,96.429,480.941,271.521,656.033
			c172.846,172.846,402.111,269.033,646.503,271.469l19.055,0.049v-0.049c244.393-2.436,473.657-98.623,646.502-271.469
			c175.095-175.092,271.521-408.074,271.521-656.033C2218.501,1046.044,2122.075,813.06,1946.98,637.968z M2188.901,1155.465
			l-342.709,49.199c-9.415-58.811-28.4-117.081-57.643-172.632c-18.811-35.734-41.122-68.827-66.336-99.021l261.309-226.366
			C2089.815,831.782,2162.865,985.971,2188.901,1155.465z M1544.059,1774.74c-77.87,40.996-165.229,62.668-252.627,62.668
			c-202.553,0-386.944-111.25-481.222-290.328c-139.549-265.078-37.425-594.274,227.653-733.834
			c77.865-40.987,165.215-62.653,252.608-62.653c202.553,0,386.946,111.241,481.22,290.315
			C1911.236,1305.977,1809.118,1635.172,1544.059,1774.74z M1971.04,692.251l-261.285,226.344
			c-67.731-75.731-154.547-131.44-251.206-161.534l97.518-332.107C1718.249,474.523,1861.261,568.313,1971.04,692.251z
			 M1290.95,385.502c85.52,0,168.326,11.879,246.838,34.072l-97.531,332.13c-48.069-13.196-98.356-20.165-149.786-20.165
			c-50.174,0-100.318,6.922-148.789,20.301l-97.564-332.266C1122.631,397.381,1205.433,385.502,1290.95,385.502z M1025.838,424.949
			l97.556,332.24c-32.511,10.164-64.151,23.27-94.407,39.197C968.12,828.43,915.58,870.149,872.203,918.645l-261.34-226.394
			C720.642,568.313,863.656,474.521,1025.838,424.949z M598.377,706.646l261.376,226.426
			c-65.277,78.197-107.697,172.427-123.78,271.632l-342.974-49.238C419.037,985.971,492.087,831.782,598.377,706.646z M382.455,1294
			c0-40.574,2.667-80.49,7.847-119.674l342.955,49.236c-12.497,97.865,0.516,199.811,42.312,295.385l-314.87,143.832
			C410.405,1550.016,382.455,1425.229,382.455,1294z M468.64,1680.102l314.875-143.836c3.151,6.596,6.401,13.168,9.837,19.689
			c44.673,84.865,108.939,154.955,185.575,206.07l-186.894,290.896C652.858,1961.121,540.283,1832.057,468.64,1680.102z
			 M808.048,2063.246l186.907-290.914c84.601,52.361,183.083,82.146,286.469,83.961v346.152
			C1107.711,2200.652,945.509,2149.848,808.048,2063.246z M1300.479,2202.445v-346.121c87.451-1.441,174.546-23.703,252.454-64.725
			c11.62-6.119,22.912-12.617,33.918-19.416l187.002,291.063C1636.392,2149.848,1474.188,2200.652,1300.479,2202.445z
			 M1789.869,2052.922l-186.962-291.002c86.619-57.66,152.822-136.424,195.322-225.725l315.033,143.902
			C2041.619,1832.057,1929.044,1961.121,1789.869,2052.922z M1806.095,1518.836c40.032-91.973,55.425-194.088,42.753-295.303
			l342.749-49.207c5.182,39.184,7.853,79.1,7.853,119.674c0,131.229-27.954,256.016-78.241,368.777L1806.095,1518.836z"/>
		<g>
			<path fill="#231F20" d="M1290.962,1411.65l-197.972-104.816v168.201h0.727c8.38,43.996,94.447,104.252,198.23,104.252
				c103.77,0,187.858-60.256,196.237-104.252h0.728v-168.197L1290.962,1411.65z"/>
			<path fill="#231F20" d="M1602.833,1351.768c6.05-4.262,10.014-11.281,10.014-19.229c0-8.17-4.185-15.373-10.526-19.592v-92.176
				l32.774-17.354l-344.133-194.704l-344.154,194.704l344.154,182.211l285.338-151.082v78.406
				c-6.336,4.219-10.525,11.42-10.525,19.586c0,7.947,3.973,14.967,10.02,19.229l-4.201,11.477l-17.722,48.406h35.452h35.405
				l-17.7-48.406L1602.833,1351.768z"/>
		</g>
	</g>
	<g>
		<g>
			<g>
				<path fill="#231F20" d="M2917.028,1124.458l151.889-360.464h137.543v528.984h-102.01V915.142l-137.542,333.257h-99.005
					L2730.36,915.142v377.837h-102.008V763.994h137.543L2917.028,1124.458z"/>
				<path fill="#231F20" d="M3415.744,1156.967l-46.095,136.012h-107.306l187.405-528.984h111.844l187.406,528.984h-107.307
					l-46.092-136.012H3415.744z M3505.663,878.113l-61.214,190.431h123.185L3505.663,878.113z"/>
				<path fill="#231F20" d="M4245.46,841.84l-67.246,69.518c-15.876-17.369-61.213-58.185-136.789-58.185
					c-103.522,0-167.762,77.069-167.762,175.314c0,108.081,72.547,174.572,167.762,174.572c74.06,0,115.634-30.238,126.967-41.554
					v-65.014h-100.514v-89.919h200.254v209.333c-56.674,48.367-120.158,86.912-231.246,86.912
					c-149.618,0-274.315-107.323-274.315-274.331c0-151.89,113.36-274.314,274.315-274.314
					C4147.974,754.173,4218.251,809.331,4245.46,841.84z"/>
				<path fill="#231F20" d="M4355.007,763.994h106.551v528.984h-106.551V763.994z"/>
				<path fill="#231F20" d="M4534.843,1028.487c0-155.654,116.389-274.314,275.826-274.314c70.279,0,123.187,23.428,157.186,48.366
					l-30.218,93.718c-25.695-18.144-73.304-42.325-126.968-42.325c-95.97,0-164.732,74.798-164.732,174.556
					c0,101.271,68.763,174.572,164.732,174.572c57.447,0,106.569-25.694,131.493-43.066l30.235,92.943
					c-31.732,23.429-84.639,49.882-161.729,49.882C4645.179,1302.818,4534.843,1184.175,4534.843,1028.487z"/>
				<path fill="#231F20" d="M5687.222,841.84l-67.244,69.518c-15.874-17.369-61.215-58.185-136.791-58.185
					c-103.521,0-167.762,77.069-167.762,175.314c0,108.081,72.547,174.572,167.762,174.572c74.06,0,115.635-30.238,126.967-41.554
					v-65.014H5509.64v-89.919h200.256v209.333c-56.675,48.367-120.16,86.912-231.247,86.912
					c-149.62,0-274.315-107.323-274.315-274.331c0-151.89,113.359-274.314,274.315-274.314
					C5589.735,754.173,5660.014,809.331,5687.222,841.84z"/>
				<path fill="#231F20" d="M5796.768,763.994h159.455c115.614,0,179.1,70.278,179.1,157.203c0,64.22-31.75,113.342-80.114,139.796
					l125.448,231.985h-117.884l-102.78-207.049h-56.673v207.049h-106.552V763.994z M5953.196,995.999
					c38.547,0,72.549-24.183,72.549-71.037c0-42.325-29.48-68.777-77.844-68.777h-44.582v139.814H5953.196z"/>
				<path fill="#231F20" d="M6347.632,1156.967l-46.094,136.012h-107.305l187.404-528.984h111.846l187.404,528.984h-107.306
					l-46.093-136.012H6347.632z M6437.551,878.113l-61.214,190.431h123.186L6437.551,878.113z"/>
				<path fill="#231F20" d="M6841.811,934.784v358.194H6736.77V763.994h108.065l225.95,361.223V763.994h105.054v528.984h-105.813
					L6841.811,934.784z"/>
				<path fill="#231F20" d="M7365.48,859.967h-123.924v-95.973h353.655v95.973h-123.166v433.012H7365.48V859.967z"/>
				<path fill="#231F20" d="M7973.79,869.804l-88.421,40.04c-11.337-24.939-30.976-57.428-77.072-57.428
					c-36.274,0-57.442,21.914-57.442,50.619c0,87.683,229.746,74.816,229.746,238.815c0,92.959-66.512,160.968-176.844,160.968
					c-113.345,0-160.213-79.357-175.313-122.428l89.919-43.822c14.362,34.744,43.842,67.246,91.45,67.246
					c39.28,0,62.708-20.398,62.708-54.416c0-90.677-228.219-75.573-228.219-244.851c0-89.163,64.998-150.375,166.266-150.375
					C7917.116,754.173,7960.94,831.246,7973.79,869.804z"/>
			</g>
		</g>
		<g>
			<path fill="#231F20" d="M2707.265,1582.23c68.93,0,111.242,49.533,111.242,119.793c0,1.35,0,6.303-0.432,10.807h-187.797
				c0.46,52.25,35.566,83.768,84.195,83.768c39.646,0,61.721-20.727,72.974-36.49l23.427,17.109
				c-13.064,22.078-43.693,50.902-96.831,50.902c-71.166,0-120.253-49.996-120.253-122.047
				C2593.79,1631.32,2645.149,1582.23,2707.265,1582.23z M2782.05,1686.264c-2.271-48.645-36.025-73.42-74.785-73.42
				c-38.262,0-72.479,29.283-75.178,73.42H2782.05z"/>
			<path fill="#231F20" d="M3077.831,1822.26h-34.676v-36.93c-5.858,8.57-30.169,42.789-81.068,42.789
				c-67.085,0-114.398-50.902-114.398-122.492c0-72.055,45.042-123.396,111.7-123.396c48.628,0,75.641,31.535,82.417,43.674V1496.67
				h36.025V1822.26z M2963.433,1614.656c-45.929,0-79.258,37.834-79.258,91.416c0,54.498,34.678,90.064,79.721,90.064
				c49.091,0,79.26-40.975,79.26-90.064C3043.155,1647.982,3007.126,1614.656,2963.433,1614.656z"/>
			<path fill="#231F20" d="M3136.758,1734.449v-146.363h35.567v147.713c0,37.373,23.852,59.896,55.37,59.896
				c36.029,0,60.804-26.57,60.804-65.293v-142.316h36.028v234.174h-35.566v-33.773c-10.826,21.174-37.379,39.633-69.358,39.633
				C3165.12,1828.119,3136.758,1787.584,3136.758,1734.449z"/>
			<path fill="#231F20" d="M3557.762,1644.826c-9.476-9.904-33.79-29.713-69.356-29.713c-49.09,0-83.764,39.168-83.764,90.053
				c0,50.438,36.486,90.529,84.65,90.529c36.915,0,60.344-21.619,69.819-31.076l10.789,30.17
				c-9.442,9.902-38.263,33.33-81.954,33.33c-69.818,0-120.252-53.598-120.252-122.953c0-69.342,51.816-122.936,119.793-122.936
				c42.799,0,70.274,20.268,82.413,31.98L3557.762,1644.826z"/>
			<path fill="#231F20" d="M3688.743,1673.203c29.709,0,52.213,11.248,61.69,21.168v-28.82c0-32.883-22.08-51.785-56.756-51.785
				c-28.821,0-52.248,10.348-68.897,20.254l-14.409-26.111c15.758-9.918,46.851-25.678,86.465-25.678
				c63.959,0,89.163,35.584,89.163,85.561v154.469h-30.632l-4.048-19.807c-12.143,13.951-31.982,25.666-63.5,25.666
				c-51.327,0-89.162-32.424-89.162-77.912C3598.657,1705.627,3636.034,1673.203,3688.743,1673.203z M3693.678,1798.393
				c34.218,0,58.104-20.27,58.104-48.648c0-29.262-23.429-48.164-58.535-48.164c-35.598,0-58.561,20.709-58.561,48.164
				C3634.687,1776.773,3657.649,1798.393,3693.678,1798.393z"/>
			<path fill="#231F20" d="M3846.272,1539h35.565v49.086h51.36v30.17h-51.36v120.699c0,43.678,12.635,54.021,43.234,54.021
				c4.504,0,9.933-0.443,9.933-0.443v31.537c0,0-9.474,1.35-21.613,1.35c-46.854,0-67.119-30.631-67.119-83.322v-123.842h-27.472
				v-30.17h27.472V1539z"/>
			<path fill="#231F20" d="M3993.932,1503.414c13.986,0,24.775,10.826,24.775,24.332c0,13.965-10.789,24.758-24.775,24.758
				c-13.488,0-24.311-10.793-24.311-24.758C3969.621,1514.24,3980.443,1503.414,3993.932,1503.414z M3976.396,1588.086h35.564
				v234.174h-35.564V1588.086z"/>
			<path fill="#231F20" d="M4179.891,1582.23c70.702,0,122.061,52.691,122.061,122.936c0,70.258-52.243,122.953-122.49,122.953
				c-70.24,0-122.062-51.789-122.062-122.953C4057.399,1634.463,4110.107,1582.23,4179.891,1582.23z M4179.461,1795.695
				c50.439,0,86.465-38.283,86.465-90.529c0-51.785-36.025-90.51-86.465-90.51c-50.437,0-85.576,39.184-85.576,90.51
				C4093.885,1757.873,4129.452,1795.695,4179.461,1795.695z"/>
			<path fill="#231F20" d="M4534.696,1675.9v146.359h-35.567v-147.709c0-37.379-23.424-59.895-55.405-59.895
				c-36.026,0-60.803,26.564-60.803,65.305v142.299h-35.563v-234.174h35.14v33.775c11.249-21.156,37.373-39.631,69.783-39.631
				C4506.761,1582.23,4534.696,1622.764,4534.696,1675.9z"/>
			<path fill="#231F20" d="M4668.835,1673.203c29.707,0,52.213,11.248,61.69,21.168v-28.82c0-32.883-22.077-51.785-56.757-51.785
				c-28.82,0-52.246,10.348-68.895,20.254l-14.409-26.111c15.76-9.918,46.851-25.678,86.464-25.678
				c63.959,0,89.16,35.584,89.16,85.561v154.469h-30.629l-4.051-19.807c-12.135,13.951-31.977,25.666-63.496,25.666
				c-51.326,0-89.164-32.424-89.164-77.912C4578.749,1705.627,4616.126,1673.203,4668.835,1673.203z M4673.769,1798.393
				c34.218,0,58.105-20.27,58.105-48.648c0-29.262-23.426-48.164-58.533-48.164c-35.599,0-58.563,20.709-58.563,48.164
				C4614.777,1776.773,4637.742,1798.393,4673.769,1798.393z"/>
			<path fill="#231F20" d="M4823.668,1496.67h35.565v325.59h-35.565V1496.67z"/>
			<path fill="#231F20" d="M5132.974,1582.23c68.926,0,111.236,49.533,111.236,119.793c0,1.35,0,6.303-0.426,10.807h-187.803
				c0.461,52.25,35.566,83.768,84.193,83.768c39.646,0,61.725-20.727,72.977-36.49l23.424,17.109
				c-13.06,22.078-43.692,50.902-96.824,50.902c-71.164,0-120.256-49.996-120.256-122.047
				C5019.495,1631.32,5070.854,1582.23,5132.974,1582.23z M5207.755,1686.264c-2.268-48.645-36.025-73.42-74.781-73.42
				c-38.265,0-72.483,29.283-75.181,73.42H5207.755z"/>
			<path fill="#231F20" d="M5616.552,1822.26h-35.565v-140.949c0-44.139-17.997-66.654-52.676-66.654
				c-32.901,0-57.641,23.424-57.641,67.1v140.504h-35.599v-147.709c0-37.379-20.694-59.895-53.6-59.895
				c-31.059,0-56.717,26.121-56.717,65.752v141.852h-35.566v-234.174h35.102c0,21.615,0,33.775,0,33.775
				c9.016-20.268,33.791-39.631,66.199-39.631c35.137,0,59.91,17.125,70.703,42.787c13.952-27.934,41.882-42.787,75.213-42.787
				c52.244,0,80.146,36.932,80.146,88.258V1822.26z"/>
			<path fill="#231F20" d="M5675.906,1588.086h34.217v36.932c5.857-8.553,30.629-42.787,81.531-42.787
				c66.623,0,114.364,50.883,114.364,122.49c0,72.496-45.473,123.398-111.666,123.398c-49.09,0-75.675-31.521-82.881-43.693v122.047
				h-35.565V1588.086z M5790.304,1795.695c45.932,0,79.26-37.379,79.26-90.975c0-54.93-35.141-90.064-80.182-90.064
				c-48.63,0-79.259,40.977-79.259,90.064C5710.123,1762.363,5746.149,1795.695,5790.304,1795.695z"/>
			<path fill="#231F20" d="M6058.614,1582.23c70.703,0,122.03,52.691,122.03,122.936c0,70.258-52.216,122.953-122.491,122.953
				c-70.247,0-122.033-51.789-122.033-122.953C5936.12,1634.463,5988.796,1582.23,6058.614,1582.23z M6058.153,1795.695
				c50.438,0,86.463-38.283,86.463-90.529c0-51.785-36.025-90.51-86.463-90.51c-50.439,0-85.545,39.184-85.545,90.51
				C5972.608,1757.873,6008.175,1795.695,6058.153,1795.695z"/>
			<path fill="#231F20" d="M6379.172,1636.271l-62.583,185.988h-39.185l-78.798-234.174h38.725l61.23,192.754
				c0,0,0.459-0.906,63.038-192.754h35.136c62.151,191.848,62.615,192.754,62.615,192.754l61.688-192.754h38.725l-79.259,234.174
				h-39.186L6379.172,1636.271z"/>
			<path fill="#231F20" d="M6691.599,1582.23c68.931,0,111.24,49.533,111.24,119.793c0,1.35,0,6.303-0.429,10.807h-187.8
				c0.459,52.25,35.566,83.768,84.193,83.768c39.647,0,61.726-20.727,72.974-36.49l23.425,17.109
				c-13.062,22.078-43.69,50.902-96.826,50.902c-71.164,0-120.254-49.996-120.254-122.047
				C6578.122,1631.32,6629.479,1582.23,6691.599,1582.23z M6766.38,1686.264c-2.268-48.645-36.025-73.42-74.781-73.42
				c-38.265,0-72.481,29.283-75.182,73.42H6766.38z"/>
			<path fill="#231F20" d="M6952.733,1617.814c-53.596,0-69.354,42.328-69.354,92.316v112.129h-35.566v-234.174h35.102v39.168
				c8.129-23.408,34.22-45.023,69.818-45.023V1617.814z"/>
			<path fill="#231F20" d="M7319.716,1822.26h-35.566v-140.949c0-44.139-18.031-66.654-52.707-66.654
				c-32.869,0-57.646,23.424-57.646,67.1v140.504h-35.565v-147.709c0-37.379-20.726-59.895-53.595-59.895
				c-31.059,0-56.754,26.121-56.754,65.752v141.852h-35.566v-234.174h35.139c0,21.615,0,33.775,0,33.775
				c8.981-20.268,33.759-39.631,66.195-39.631c35.105,0,59.881,17.125,70.706,42.787c13.95-27.934,41.884-42.787,75.177-42.787
				c52.248,0,80.184,36.932,80.184,88.258V1822.26z"/>
			<path fill="#231F20" d="M7477.21,1582.23c68.932,0,111.242,49.533,111.242,119.793c0,1.35,0,6.303-0.431,10.807h-187.796
				c0.459,52.25,35.566,83.768,84.194,83.768c39.646,0,61.722-20.727,72.974-36.49l23.426,17.109
				c-13.063,22.078-43.693,50.902-96.83,50.902c-71.165,0-120.252-49.996-120.252-122.047
				C7363.737,1631.32,7415.096,1582.23,7477.21,1582.23z M7551.996,1686.264c-2.271-48.645-36.025-73.42-74.786-73.42
				c-38.264,0-72.478,29.283-75.176,73.42H7551.996z"/>
			<path fill="#231F20" d="M7820.765,1675.9v146.359h-35.597v-147.709c0-37.379-23.425-59.895-55.372-59.895
				c-36.027,0-60.805,26.564-60.805,65.305v142.299h-35.566v-234.174h35.107v33.775c11.254-21.156,37.375-39.631,69.82-39.631
				C7792.833,1582.23,7820.765,1622.764,7820.765,1675.9z"/>
			<path fill="#231F20" d="M7882.817,1539h35.565v49.086h51.36v30.17h-51.36v120.699c0,43.678,12.636,54.021,43.232,54.021
				c4.508,0,9.937-0.443,9.937-0.443v31.537c0,0-9.477,1.35-21.616,1.35c-46.851,0-67.118-30.631-67.118-83.322v-123.842h-27.474
				v-30.17h27.474V1539z"/>
		</g>
	</g>
</g>
</svg>
