<?xml version="1.0" encoding="utf-8"?>
<!-- Generator: Adobe Illustrator 16.0.0, SVG Export Plug-In . SVG Version: 6.00 Build 0)  -->
<!DOCTYPE svg PUBLIC "-//W3C//DTD SVG 1.1//EN" "http://www.w3.org/Graphics/SVG/1.1/DTD/svg11.dtd">
<svg version="1.1" id="Layer_1" xmlns="http://www.w3.org/2000/svg" xmlns:xlink="http://www.w3.org/1999/xlink" x="0px" y="0px"
	 width="2000px" height="2000px" viewBox="0 0 2000 2000" enable-background="new 0 0 2000 2000" xml:space="preserve">
<g>
	<g>
		<path fill="#231F20" d="M721.373,406.467l-60.646,39.59l-6.054-9.273c6.572-4.291,10.594-7.554,12.057-9.799
			c2.12-3.219,1.836-6.897-0.849-11.016l-67.467-103.323l-58.522,38.202l67.653,103.205c2.608,3.996,5.569,5.726,8.91,5.204
			c3.326-0.521,8.218-2.885,14.647-7.084l6.063,9.268l-60.655,39.591l-6.052-9.266c6.57-4.287,10.588-7.561,12.061-9.806
			c2.122-3.219,1.834-6.886-0.858-11.011l-62.417-95.6c-3.36-5.148-7.605-7.338-12.727-6.57c-3.263,0.478-7.457,2.396-12.597,5.75
			l-6.049-9.272l144.28-94.199l6.044,9.272c-4.892,3.2-8.178,6.172-9.871,8.925c-2.816,4.416-2.538,9.199,0.824,14.335
			l62.409,95.607c2.62,3.995,5.602,5.713,8.962,5.179c3.349-0.546,8.292-2.939,14.803-7.183L721.373,406.467z"/>
	</g>
	<g>
		<path fill="#231F20" d="M318.651,649.197c5.877-2.483,12.253-4.3,19.146-5.466c6.886-1.167,12.828-1.471,17.82-0.9
			c3.018,0.324,5.79,0.906,8.318,1.743c2.542,0.851,5.198,2.078,7.999,3.691c4.394,2.536,8.724,6.1,12.999,10.698
			c6.983,7.586,11.382,16.879,13.201,27.869c1.578,9.268,0.59,18.367-2.978,27.311c-0.183,0.611-0.995,2.624-2.436,6.054
			c-1.444,3.429-2.784,6.208-4.013,8.335c-2.462,4.262-5.242,7.986-8.324,11.179c-3.088,3.19-7.124,6.18-12.107,8.99
			c-9.836,5.328-20.984,8.041-33.464,8.115c-9.563-0.03-18.098-1.4-25.589-4.123c-3.625-1.383-7.175-3.086-10.64-5.093
			c-5.464-3.145-9.987-6.996-13.572-11.555c-2.177-2.679-4.633-6.581-7.355-11.711c-2.717-5.12-4.355-11.661-4.917-19.622
			c-0.342-4.629-0.251-9.549,0.27-14.753c0.516-5.204,1.747-10.94,3.667-17.198c1.927-6.256,4.386-11.981,7.396-17.175
			l31.599-54.732l23.171,13.378L318.651,649.197z M371.612,686.181c-3.402-3.933-7.975-7.555-13.701-10.86
			c-6.926-4.001-13.669-6.469-20.231-7.418c-9.296-1.107-20.062,0.31-32.284,4.262c-3.077,5.327-4.997,9.104-5.75,11.33
			c-1.986,5.596-2.375,11.333-1.134,17.183c1.079,4.894,3.425,9.222,7.021,12.988c3.598,3.765,7.325,6.76,11.184,8.99
			c1.469,0.847,2.407,1.381,2.802,1.613c7.723,4.46,15.787,6.8,24.181,7.015c6.684,0.12,13.098-0.995,19.234-3.328
			c3.339-1.458,5.679-2.603,7.045-3.417c2.578-1.718,4.763-4.11,6.542-7.19c1.237-2.133,2.342-5.058,3.33-8.77
			c0.993-3.703,0.411-7.866-1.712-12.485C376.559,692.694,374.382,689.381,371.612,686.181z M318.651,649.197l-4.839,8.383
			l-4.794-2.772C311.13,653.016,314.338,651.136,318.651,649.197z"/>
	</g>
	<g>
		<path fill="#231F20" d="M850.189,1804.621l-69.313-20.996l3.217-10.598c7.5,2.273,12.584,3.254,15.257,2.934
			c3.829-0.439,6.458-3.02,7.883-7.734l15.117-49.884l-60.049-18.199l-15.113,49.897c-1.387,4.559-0.809,7.941,1.733,10.166
			c2.542,2.217,7.497,4.44,14.856,6.667l-3.211,10.598l-69.313-21l3.209-10.6c7.506,2.277,12.592,3.26,15.26,2.935
			c3.826-0.438,6.456-3.02,7.887-7.726l34.033-112.375c1.387-4.554,0.803-7.946-1.733-10.16c-2.54-2.221-7.491-4.439-14.851-6.669
			l3.208-10.595l69.314,20.996l-3.214,10.598c-7.506-2.273-12.879-3.219-16.127-2.835c-3.244,0.383-5.584,2.925-7.015,7.634
			l-14.106,46.577l60.044,18.193l14.11-46.579c1.383-4.564,0.807-7.951-1.739-10.166c-2.542-2.221-7.5-4.44-14.852-6.669l3.211-10.6
			l69.307,20.996l-3.204,10.6c-7.506-2.27-12.883-3.216-16.127-2.837c-3.253,0.381-5.59,2.929-7.015,7.632l-34.041,112.37
			c-1.383,4.563-0.807,7.949,1.737,10.17c2.546,2.211,7.493,4.438,14.852,6.665L850.189,1804.621z"/>
	</g>
	<g>
		<path fill="#231F20" d="M1672.611,773.546l-53.265,13.988l-57.471-124.121l100.17,28.595l48.324-93.804l54.573,117.836
			l-36.727,20.052l-4.555-9.831c5.929-4.776,9.841-8.964,11.736-12.542c3.211-6.237,2.945-13.412-0.8-21.493l-18.32-39.566
			l-32.44,63.317l-76.174-21.744l25.324,54.664c3.102,6.709,6.614,11.013,10.561,12.923c5.074,2.564,13.186,3.052,24.309,1.458
			L1672.611,773.546z"/>
	</g>
	<g>
		<path fill="#231F20" d="M1259.231,1754.621c-2.516,7.787-6.384,14.139-11.591,19.036c-5.217,4.897-11.289,8.364-18.217,10.401
			c-6.944,2.034-13.92,2.413-20.959,1.121c-7.033-1.31-13.639-4.572-19.822-9.805c-8.422-6.823-15.689-15.307-21.786-25.448
			c-6.114-10.142-10.86-20.979-14.247-32.48c-3.807-12.985-5.742-25.8-5.769-38.457c-0.036-12.643,1.894-23.555,5.769-32.709
			c2.287-5.325,6.055-10.198,11.328-14.635c5.266-4.432,11.213-7.62,17.857-9.57c6.934-2.042,13.609-2.644,20.029-1.81
			c6.416,0.847,12.389,3.018,17.904,6.522c8.262,5.748,15.78,13.872,22.554,24.387c6.777,10.504,12.102,22.329,15.964,35.454
			c3.505,11.954,5.407,23.61,5.712,34.986C1264.258,1732.989,1262.676,1743.992,1259.231,1754.621z M1207.532,1643.356
			c-3.878-3.356-7.59-5.503-11.149-6.458c-3.573-0.951-6.99-0.951-10.229,0c-3.097,0.911-5.941,2.787-8.558,5.638
			c-2.607,2.857-4.523,6.551-5.764,11.075c-1.227,4.525-1.113,12.027,0.363,22.492c1.479,10.463,4.059,21.972,7.744,34.511
			c3.082,10.476,6.568,20.031,10.463,28.655c3.898,8.631,8.162,15.637,12.79,21.006c7.201,8.138,14.488,11.127,21.865,8.956
			c3.244-0.955,6.155-3.206,8.708-6.77c2.567-3.551,4.125-7.656,4.678-12.309c1.072-6.724,0.837-15.147-0.695-25.283
			c-1.539-10.122-3.776-20.202-6.737-30.235c-3.505-11.958-7.474-22.725-11.896-32.318
			C1214.686,1652.71,1210.828,1646.398,1207.532,1643.356z"/>
	</g>
	<g>
		<path fill="#231F20" d="M1379.686,470.503l-57.979-37.787l6.044-9.273c6.312,4.113,11.459,6.227,15.432,6.326
			c3.965,0.107,7.213-1.773,9.733-5.643l59.784-91.737c0.923-1.427,0.676-2.599-0.742-3.524l-1.794-0.613l-18.414-4.281l6.052-9.291
			l45.293,3.598l7.146,4.652l-75.307,115.566c-3.107,4.77-2.889,9.502,0.665,14.198c1.983,2.588,5.362,5.421,10.134,8.53
			L1379.686,470.503z"/>
	</g>
	<g>
		<path fill="#231F20" d="M287.459,1098.773l80.696,21.797l5.041,28.774l-126.608-33.461c-8,3.304-12.653,5.3-13.935,5.996
			c-7.609,3.692-12.375,7.203-14.285,10.51c-0.757,1.069-1.32,2.458-1.72,4.173c-0.401,1.707-0.453,3.396-0.154,5.064
			c0.348,1.974,1.391,4.051,3.099,6.233c1.724,2.203,3.916,3.764,6.578,4.694c5.927,0.821,10.728,1.451,14.394,1.887l1.861,10.45
			c-10.744,1.912-21.428,1.627-32.018-0.862c-5.369-1.229-9.53-3.297-12.47-6.218c-2.934-2.907-4.772-6.408-5.502-10.505
			c-0.961-5.438,0.04-11.047,2.999-16.812c2.962-5.758,6.985-10.18,12.063-13.275c11.302-6.854,24.354-13.471,39.174-19.86
			c4.633-2.071,17.487-7.171,38.569-15.299c14.502-5.548,25.161-10.018,31.986-13.426c6.823-3.397,11.197-7.145,13.138-11.235
			c0.34-0.687,0.753-1.854,1.25-3.508c0.493-1.645,0.596-3.226,0.327-4.742c-0.269-1.514-0.814-2.821-1.651-3.927
			c-1.939-2.927-5.025-4.723-9.249-5.373c-3.383-0.343-6.846-0.664-10.381-0.969l-1.813-10.221
			c7.757-1.382,13.882-2.078,18.344-2.097c4.479-0.02,9.22,0.807,14.227,2.486c5.006,1.682,9.047,4.312,12.106,7.883
			c3.071,3.583,4.987,7.481,5.734,11.705c0.837,4.677-0.087,9.392-2.757,14.152c-2.669,4.753-5.999,8.459-9.995,11.111
			c-3.98,2.66-12.204,6.572-24.655,11.742C309.391,1090.818,297.925,1095.194,287.459,1098.773z M287.459,1098.773l-8.264,2.873
			l-0.883-5.054L287.459,1098.773z"/>
	</g>
	<g>
		<path fill="#231F20" d="M1726.882,1163.896c-0.959,7.809-8.3,13.844-16.106,12.889c-9.107-1.117-14.085-8.992-13.007-17.777
			c0.758-6.176,11.624-16.741,15.703-44.635c-37.884,15.494-32.127,30.403-47.419,28.527c-8.135-0.997-14.121-8.667-13.128-16.797
			c2.474-20.172,25.394-7.786,56.707-20.787c-24.552-17.871-35.563-14.271-43.099-20.146c-4.851-3.569-6.85-8.764-6.213-13.967
			c1.077-8.783,9.275-13.729,17.088-12.77c11.386,1.396,16.355,22.808,38.467,39.059c1.596-13.013,1.074-24.963-1.471-33.864
			c-1.83-3.851-3.029-10.276-2.592-13.854c1.039-8.462,8.025-14.202,16.478-13.163c8.459,1.035,14.169,8.33,13.134,16.797
			c-0.443,3.575-3.387,8.828-5.868,12.818c-5.347,8.591-7.921,18.84-9.922,32.463c33.827-14.671,32.456-30.364,46.766-28.608
			c8.126,0.999,14.494,8.385,13.495,16.518c-2.553,20.822-18.482,5.327-56.098,21.191c29.906,22.819,52.641,12.401,49.972,34.195
			c-1.081,8.778-9.243,13.395-17.048,12.436c-5.202-0.636-9.841-3.186-15.085-14.394c-3.14-6.657-12.181-16.354-24.401-24.457
			C1719.962,1142.248,1727.795,1156.421,1726.882,1163.896z"/>
	</g>
	<g>
		<g>
			<path fill="#231F20" d="M1000.168,171.158c23.157,0,42.25,7.479,57.271,22.423c15.023,14.947,22.535,33.63,22.535,56.053
				c0,19.539-5.881,36.52-17.654,50.948c-11.767,14.428-25.932,23.055-42.506,25.865c3.4,9.837,8.691,17.236,15.874,22.199
				c7.175,4.951,16.163,7.432,26.971,7.432c2.956,0,6.107-0.298,9.43-0.887v6.774c-11.169,2.808-21.162,4.21-29.968,4.21
				c-13.76,0-26.064-3.362-36.908-10.098c-10.841-6.729-19-16.61-24.474-29.63c-18.203-3.845-32.875-12.765-44.011-26.751
				c-11.138-13.986-16.702-30.673-16.702-50.061c0-22.492,7.55-41.199,22.646-56.11
				C957.765,178.612,976.93,171.158,1000.168,171.158 M1000.057,320.225c11.241,0,20.013-4.249,26.303-12.757
				c9.104-12.213,13.658-30.561,13.658-55.062c0-24.122-2.854-41.583-8.551-52.388c-7.102-13.613-17.575-20.417-31.41-20.417
				c-13.326,0-23.61,6.915-30.861,20.752c-6.066,11.618-9.103,28.154-9.103,49.616c0,25.747,4.549,44.844,13.656,57.274
				C980.109,315.896,988.877,320.225,1000.057,320.225 M1000.168,161.629c-25.729,0-47.324,8.452-64.191,25.119
				c-16.905,16.694-25.479,37.854-25.479,62.885c0,21.51,6.317,40.35,18.774,55.998c11.513,14.455,26.541,24.196,44.726,29.002
				c6.191,12.66,14.985,22.584,26.192,29.537c12.313,7.65,26.422,11.53,41.931,11.53c9.56,0,20.424-1.513,32.293-4.5l7.205-1.812
				v-7.426v-6.774v-11.365l-11.189,1.983c-2.776,0.493-5.389,0.742-7.771,0.742c-8.779,0-16.032-1.933-21.563-5.748
				c-3.01-2.08-5.576-4.728-7.73-8.001c13.817-4.751,26.006-13.528,36.341-26.198c13.133-16.099,19.796-35.268,19.796-56.97
				c0-24.944-8.526-46.073-25.344-62.809C1047.352,170.105,1025.823,161.629,1000.168,161.629L1000.168,161.629z M1000.057,310.698
				c-8.146,0-14.068-2.891-18.634-9.099c-7.828-10.686-11.798-28.061-11.798-51.631c0-19.809,2.7-35.017,8.016-45.206
				c7.345-14.015,16.313-15.636,22.417-15.636c10.222,0,17.521,4.859,22.962,15.299c4.962,9.413,7.472,25.542,7.472,47.979
				c0,22.282-3.963,38.891-11.77,49.367C1014.213,307.873,1008.288,310.698,1000.057,310.698L1000.057,310.698z"/>
		</g>
	</g>
	<g>
		<g>
			<path fill="#231F20" d="M1525.553,1398.97l3.176,2.606c-4.409,5.379-6.901,9.439-7.469,12.173
				c-0.576,2.742-0.373,5.154,0.598,7.24c0.959,2.085,4.589,5.712,10.896,10.872l75.53,61.928c6.294,5.16,10.575,8.021,12.839,8.587
				c0.748,0.187,1.512,0.279,2.291,0.279c1.583,0,3.232-0.384,4.959-1.156c2.568-1.147,6.039-4.38,10.396-9.702l3.173,2.603
				l-41.593,50.735c-13.695,16.699-26.5,26.255-38.406,28.646c-2.931,0.586-5.771,0.877-8.515,0.877
				c-8.433,0-16.015-2.757-22.739-8.28c-7.554-6.188-12.101-13.842-13.631-22.937c-1.529-9.11,0.104-18.574,4.913-28.415
				c3.185-6.67,10.187-16.617,21.024-29.841l-32.273-26.455c-6.294-5.166-10.578-8.031-12.839-8.593
				c-0.732-0.183-1.484-0.275-2.249-0.275c-1.605,0-3.284,0.399-5.034,1.192c-2.586,1.176-6.047,4.396-10.358,9.662l-3.178-2.606
				L1525.553,1398.97 M1575.854,1547.466c0.462,0,0.923-0.016,1.379-0.046c7.104-0.493,13.734-4.488,19.879-11.981l2.881-3.521
				l-50.303-41.242c-1.659,1.796-2.888,3.179-3.691,4.153c-5.715,6.98-8.06,14.061-6.998,21.239
				c1.051,7.175,5.918,14.335,14.621,21.464C1561.705,1544.16,1569.118,1547.466,1575.854,1547.466 M1524.229,1385.556l-6.041,7.371
				l-48.486,59.143l-6.041,7.365l7.361,6.043l3.174,2.604l7.379,6.051l6.041-7.383c4.834-5.903,6.878-6.992,6.958-7.036
				c0.46-0.207,0.761-0.281,0.923-0.31c0.809,0.413,3.339,1.895,9.182,6.689l24.988,20.484
				c-8.049,10.28-13.402,18.288-16.293,24.349c-5.634,11.528-7.566,23.027-5.706,34.096c1.91,11.394,7.626,21.061,16.983,28.727
				c8.437,6.924,18.121,10.437,28.778,10.437c3.358,0,6.853-0.356,10.383-1.064c14.267-2.861,28.628-13.313,43.903-31.945
				l41.597-50.735l6.043-7.372l-7.371-6.037l-3.175-2.604l-7.371-6.041l-6.039,7.375c-4.853,5.921-6.881,7.019-6.964,7.063
				c-0.455,0.204-0.754,0.271-0.906,0.295c-0.795-0.403-3.319-1.874-9.209-6.699l-75.524-61.928
				c-5.838-4.776-7.771-6.949-8.314-7.647c-0.02-0.195-0.018-0.561,0.103-1.136c0.01-0.017,0.685-2.205,5.511-8.09l6.039-7.363
				l-7.36-6.041l-3.173-2.608L1524.229,1385.556L1524.229,1385.556z M1575.854,1537.938c-4.392,0-9.987-2.688-16.189-7.772
				c-6.668-5.464-10.553-10.813-11.242-15.481c-0.506-3.438,0.354-6.924,2.617-10.585l35.304,28.941
				c-3.265,3.012-6.538,4.65-9.772,4.873C1576.34,1537.933,1576.095,1537.938,1575.854,1537.938L1575.854,1537.938z"/>
		</g>
	</g>
	<g>
		<g>
			<path fill="#231F20" d="M460.828,1379.313l91.315,103.279l-165.276,27.892l14.774,16.723c5.734,6.48,9.708,10.58,11.909,12.289
				c4.153,3.242,8.802,5.62,13.943,7.146c3.255,0.957,6.58,1.438,9.981,1.438c1.988,0,4.003-0.164,6.041-0.493
				c5.542-0.891,11.578-3.102,18.144-6.631l2.723,3.073l-35.73,26.12l-78.738-89.064l165.032-27.834l-18.968-21.459
				c-8.966-10.141-15.88-16.675-20.735-19.595c-7.826-4.829-16.521-7.261-26.093-7.301c-0.055,0-0.114,0-0.171,0
				c-9.51,0-19.541,3.034-30.074,9.113l-2.865-3.244L460.828,1379.313 M462.322,1366.622l-6.97,4.894l-44.787,31.453l-8.718,6.123
				l7.049,7.981l2.865,3.244l5.156,5.838l6.747-3.894c9.019-5.203,17.535-7.839,25.313-7.839c7.991,0.034,14.904,1.956,21.262,5.879
				c2.841,1.713,8.283,6.133,18.601,17.802l7.605,8.607l-148.119,24.98l-16.915,2.854l11.363,12.851l78.736,89.063l5.753,6.504
				l7.009-5.124l35.73-26.118l8.448-6.176l-6.941-7.834l-2.723-3.072l-5-5.646l-6.643,3.573c-5.601,3.008-10.693,4.899-15.141,5.613
				c-1.538,0.249-3.058,0.373-4.53,0.373c-2.47,0-4.92-0.354-7.288-1.053c-4.016-1.191-7.546-2.998-10.774-5.518
				c-0.803-0.622-3.402-2.915-10.634-11.089l-3.417-3.872l148.367-25.035l16.915-2.854l-11.363-12.853l-91.317-103.278
				L462.322,1366.622L462.322,1366.622z"/>
		</g>
	</g>
	<path fill="#231F20" d="M1656.03,343.968C1480.942,168.875,1247.956,72.449,1000,72.449s-480.938,96.426-656.03,271.519
		C168.878,519.06,72.449,752.044,72.449,1000c0,247.96,96.429,480.942,271.521,656.034
		c172.846,172.846,402.111,269.033,646.503,271.469l19.055,0.048v-0.048c244.393-2.436,473.657-98.623,646.502-271.469
		c175.095-175.092,271.521-408.074,271.521-656.034C1927.551,752.044,1831.125,519.06,1656.03,343.968z M1897.951,861.465
		l-342.709,49.199c-9.415-58.81-28.4-117.081-57.643-172.632c-18.811-35.734-41.122-68.827-66.336-99.021l261.309-226.367
		C1798.865,537.782,1871.915,691.971,1897.951,861.465z M1253.108,1480.74c-77.87,40.997-165.229,62.669-252.627,62.669
		c-202.553,0-386.944-111.25-481.222-290.329C379.71,988.002,481.834,658.805,746.912,519.246
		c77.865-40.987,165.215-62.653,252.608-62.653c202.553,0,386.946,111.242,481.22,290.315
		C1620.286,1011.978,1518.168,1341.172,1253.108,1480.74z M1680.09,398.251l-261.285,226.344
		c-67.731-75.732-154.547-131.44-251.206-161.535l97.518-332.107C1427.299,180.523,1570.311,274.313,1680.09,398.251z M1000,91.502
		c85.52,0,168.326,11.878,246.838,34.071l-97.531,332.13c-48.069-13.197-98.356-20.165-149.786-20.165
		c-50.173,0-100.318,6.922-148.789,20.3l-97.565-332.266C831.68,103.381,914.482,91.502,1000,91.502z M734.888,130.949
		l97.556,332.241c-32.511,10.164-64.151,23.27-94.407,39.197c-60.866,32.043-113.407,73.763-156.784,122.258l-261.34-226.393
		C429.691,274.313,572.706,180.521,734.888,130.949z M307.427,412.645l261.376,226.426
		c-65.277,78.198-107.697,172.428-123.78,271.633l-342.974-49.239C128.087,691.971,201.137,537.782,307.427,412.645z M91.504,1000
		c0-40.574,2.667-80.491,7.847-119.674l342.955,49.237c-12.497,97.866,0.516,199.811,42.312,295.384l-314.87,143.832
		C119.455,1256.016,91.504,1131.229,91.504,1000z M177.69,1386.102l314.875-143.836c3.151,6.597,6.401,13.168,9.837,19.69
		c44.673,84.865,108.939,154.954,185.575,206.069l-186.894,290.897C361.908,1667.121,249.333,1538.057,177.69,1386.102z
		 M517.098,1769.247l186.907-290.915c84.601,52.361,183.083,82.147,286.469,83.961v346.153
		C816.761,1906.653,654.559,1855.849,517.098,1769.247z M1009.528,1908.446v-346.121c87.451-1.442,174.546-23.703,252.454-64.725
		c11.62-6.119,22.912-12.617,33.918-19.417l187.002,291.063C1345.441,1855.849,1183.238,1906.653,1009.528,1908.446z
		 M1498.919,1758.923l-186.962-291.003c86.619-57.66,152.822-136.423,195.322-225.725l315.033,143.902
		C1750.669,1538.057,1638.094,1667.121,1498.919,1758.923z M1515.145,1224.837c40.032-91.974,55.425-194.088,42.753-295.304
		l342.749-49.207c5.182,39.184,7.853,79.1,7.853,119.674c0,131.229-27.954,256.016-78.241,368.778L1515.145,1224.837z"/>
	<g>
		<path fill="#231F20" d="M1000.012,1117.651L802.04,1012.835v168.2h0.727c8.379,43.996,94.447,104.252,198.23,104.252
			c103.77,0,187.858-60.256,196.237-104.252h0.728v-168.196L1000.012,1117.651z"/>
		<path fill="#231F20" d="M1311.883,1057.769c6.05-4.262,10.014-11.282,10.014-19.229c0-8.17-4.185-15.373-10.526-19.592v-92.176
			l32.774-17.354l-344.133-194.704L655.858,909.417l344.154,182.211l285.338-151.082v78.407
			c-6.336,4.219-10.525,11.42-10.525,19.586c0,7.946,3.973,14.967,10.02,19.229l-4.201,11.476l-17.722,48.407h35.452h35.405
			l-17.7-48.407L1311.883,1057.769z"/>
	</g>
</g>
</svg>
