<svg width="720" height="720" xmlns="http://www.w3.org/2000/svg" xmlns:xlink="http://www.w3.org/1999/xlink" xml:space="preserve" overflow="hidden"><g transform="translate(-280 0)"><path d="M539.694 146.328 517.862 160.581 515.682 157.242C518.048 155.697 519.496 154.523 520.023 153.715 520.786 152.556 520.684 151.232 519.717 149.749L495.429 112.553 474.361 126.305 498.716 163.459C499.655 164.898 500.721 165.52 501.924 165.333 503.121 165.145 504.882 164.294 507.197 162.782L509.379 166.119 487.544 180.372 485.365 177.036C487.73 175.492 489.177 174.314 489.707 173.506 490.471 172.347 490.367 171.027 489.398 169.542L466.928 135.126C465.718 133.272 464.19 132.484 462.346 132.76 461.171 132.933 459.662 133.623 457.811 134.83L455.634 131.493 507.574 97.5809 509.75 100.919C507.989 102.071 506.806 103.141 506.197 104.132 505.183 105.722 505.283 107.443 506.493 109.292L528.961 143.711C529.904 145.149 530.977 145.768 532.187 145.575 533.392 145.379 535.172 144.517 537.516 142.989L539.694 146.328Z" fill="#562BB7"/><path d="M394.714 233.711C396.83 232.817 399.125 232.163 401.607 231.743 404.086 231.323 406.225 231.214 408.022 231.419 409.109 231.536 410.107 231.745 411.017 232.047 411.932 232.353 412.888 232.795 413.896 233.375 415.478 234.288 417.037 235.571 418.576 237.227 421.09 239.958 422.673 243.303 423.328 247.26 423.896 250.596 423.541 253.872 422.256 257.091 422.19 257.311 421.898 258.036 421.379 259.271 420.859 260.505 420.377 261.506 419.935 262.272 419.048 263.806 418.047 265.146 416.938 266.296 415.826 267.444 414.373 268.521 412.579 269.532 409.038 271.45 405.025 272.427 400.532 272.454 397.09 272.443 394.017 271.95 391.32 270.969 390.015 270.472 388.737 269.859 387.49 269.136 385.523 268.004 383.895 266.617 382.604 264.976 381.82 264.012 380.936 262.607 379.956 260.76 378.978 258.917 378.388 256.562 378.186 253.696 378.063 252.03 378.096 250.259 378.283 248.385 378.469 246.512 378.912 244.447 379.603 242.194 380.297 239.942 381.182 237.881 382.266 236.011L393.642 216.307 401.983 221.124 394.714 233.711ZM413.78 247.025C412.556 245.609 410.909 244.305 408.848 243.116 406.355 241.675 403.927 240.787 401.565 240.445 398.218 240.047 394.342 240.557 389.943 241.979 388.835 243.897 388.144 245.257 387.873 246.058 387.158 248.073 387.018 250.138 387.464 252.244 387.853 254.006 388.697 255.564 389.992 256.92 391.287 258.275 392.629 259.353 394.018 260.156 394.547 260.461 394.885 260.653 395.027 260.737 397.807 262.342 400.71 263.185 403.732 263.262 406.138 263.305 408.447 262.904 410.656 262.064 411.858 261.539 412.701 261.127 413.192 260.834 414.121 260.216 414.907 259.354 415.548 258.246 415.993 257.478 416.391 256.425 416.746 255.088 417.104 253.755 416.894 252.257 416.13 250.594 415.561 249.37 414.778 248.177 413.78 247.025ZM394.714 233.711 392.972 236.729 391.246 235.731C392.007 235.086 393.162 234.409 394.714 233.711Z" fill="#562BB7"/><path d="M586.068 649.663 561.115 642.103 562.273 638.291C564.974 639.108 566.804 639.461 567.766 639.346 569.144 639.187 570.091 638.258 570.604 636.563L576.046 618.602 554.428 612.05 548.988 630.014C548.488 631.656 548.696 632.873 549.612 633.676 550.527 634.471 552.311 635.274 554.96 636.073L553.804 639.889 528.851 632.329 530.006 628.513C532.708 629.334 534.539 629.687 535.5 629.572 536.877 629.413 537.824 628.484 538.339 626.789L550.591 586.336C551.09 584.694 550.88 583.474 549.967 582.678 549.053 581.875 547.271 581.08 544.621 580.277L545.776 576.461 570.729 584.021 569.572 587.837C566.87 587.016 564.935 586.678 563.766 586.814 562.598 586.951 561.756 587.869 561.241 589.565L556.162 606.33 577.778 612.878 582.858 596.113C583.356 594.468 583.148 593.251 582.232 592.452 581.317 591.653 579.532 590.854 576.885 590.051L578.041 586.235 602.992 593.795 601.838 597.611C599.136 596.794 597.2 596.452 596.032 596.588 594.861 596.725 594.02 597.643 593.507 599.335L581.252 639.788C580.754 641.434 580.962 642.65 581.878 643.45 582.794 644.245 584.575 645.048 587.224 645.851L586.068 649.663Z" fill="#562BB7"/><path d="M882.14 278.477 862.966 283.512 842.277 238.829 878.338 249.123 895.733 215.353 915.378 257.774 902.156 264.993 900.518 261.454C902.652 259.735 904.06 258.227 904.744 256.939 905.9 254.694 905.802 252.111 904.456 249.201L897.861 234.958 886.182 257.752 858.758 249.924 867.876 269.603C868.992 272.018 870.256 273.568 871.678 274.255 873.503 275.178 876.423 275.354 880.43 274.78L882.14 278.477Z" fill="#562BB7"/><path d="M733.323 631.663C732.416 634.468 731.026 636.754 729.15 638.518 727.271 640.278 725.086 641.527 722.591 642.262 720.093 642.992 717.58 643.129 715.046 642.665 712.515 642.193 710.135 641.02 707.91 639.133 704.879 636.678 702.262 633.625 700.07 629.975 697.866 626.321 696.16 622.422 694.94 618.282 693.568 613.606 692.873 608.994 692.862 604.436 692.848 599.886 693.543 595.955 694.94 592.661 695.764 590.742 697.118 588.989 699.018 587.394 700.912 585.796 703.054 584.651 705.444 583.945 707.943 583.211 710.344 582.995 712.655 583.297 714.966 583.6 717.116 584.381 719.103 585.644 722.076 587.714 724.784 590.638 727.221 594.421 729.662 598.205 731.577 602.46 732.966 607.187 734.23 611.489 734.914 615.686 735.026 619.78 735.134 623.876 734.565 627.836 733.323 631.663ZM714.711 591.61C713.314 590.4 711.978 589.626 710.697 589.284 709.412 588.942 708.18 588.942 707.014 589.284 705.902 589.612 704.876 590.288 703.936 591.314 702.996 592.34 702.305 593.672 701.859 595.3 701.416 596.93 701.459 599.63 701.988 603.396 702.521 607.165 703.45 611.305 704.778 615.82 705.887 619.592 707.144 623.034 708.544 626.137 709.948 629.244 711.482 631.768 713.148 633.701 715.74 636.628 718.365 637.704 721.022 636.923 722.188 636.581 723.236 635.771 724.157 634.486 725.079 633.208 725.64 631.732 725.838 630.054 726.227 627.635 726.141 624.604 725.59 620.953 725.036 617.31 724.229 613.681 723.164 610.067 721.904 605.765 720.474 601.888 718.88 598.435 717.288 594.976 715.899 592.704 714.711 591.61Z" fill="#562BB7"/><path d="M776.688 169.381 755.816 155.778 757.99 152.439C760.262 153.92 762.116 154.681 763.545 154.717 764.974 154.755 766.144 154.079 767.051 152.685L788.572 119.66C788.903 119.146 788.817 118.724 788.306 118.391L787.658 118.171 781.03 116.63 783.208 113.285 799.512 114.58 802.086 116.255 774.975 157.859C773.859 159.576 773.938 161.279 775.216 162.97 775.929 163.902 777.146 164.921 778.863 166.041L776.688 169.381Z" fill="#562BB7"/><path d="M383.485 395.557 412.536 403.405 414.351 413.762 368.772 401.717C365.892 402.908 364.217 403.625 363.755 403.877 361.016 405.205 359.3 406.469 358.612 407.66 358.34 408.046 358.137 408.546 357.993 409.162 357.849 409.777 357.83 410.386 357.938 410.987 358.063 411.696 358.439 412.445 359.053 413.23 359.674 414.022 360.463 414.583 361.422 414.918 363.555 415.213 365.284 415.44 366.603 415.598L367.273 419.36C363.406 420.048 359.559 419.947 355.747 419.051 353.814 418.608 352.316 417.863 351.258 416.812 350.201 415.764 349.54 414.504 349.277 413.032 348.931 411.073 349.291 409.054 350.357 406.976 351.423 404.903 352.871 403.312 354.699 402.199 358.768 399.73 363.467 397.35 368.802 395.05 370.47 394.304 375.097 392.468 382.687 389.542 387.907 387.544 391.745 385.934 394.202 384.707 396.658 383.486 398.233 382.136 398.931 380.664 399.054 380.416 399.202 379.994 399.381 379.4 399.559 378.806 399.596 378.238 399.499 377.694 399.402 377.147 399.206 376.679 398.905 376.279 398.207 375.224 397.096 374.58 395.575 374.346 394.357 374.224 393.111 374.105 391.838 373.997L391.185 370.318C393.978 369.821 396.183 369.569 397.789 369.562 399.402 369.554 401.108 369.853 402.911 370.458 404.713 371.063 406.168 372.01 407.269 373.295 408.375 374.584 409.064 375.988 409.333 377.51 409.635 379.192 409.302 380.891 408.341 382.604 407.38 384.314 406.181 385.65 404.743 386.604 403.31 387.562 400.349 388.969 395.867 390.83 391.381 392.695 387.253 394.268 383.485 395.557ZM383.485 395.557 380.51 396.594 380.192 394.772 383.485 395.557Z" fill="#562BB7"/><path d="M901.677 419.004C901.331 421.812 898.689 423.986 895.881 423.644 892.601 423.241 890.808 420.404 891.197 417.244 891.471 415.019 895.38 411.217 896.849 401.173 883.212 406.753 885.282 412.121 879.778 411.444 876.851 411.084 874.695 408.323 875.055 405.396 875.944 398.135 884.195 402.595 895.467 397.915 886.629 391.478 882.665 392.778 879.951 390.661 878.205 389.376 877.485 387.508 877.715 385.632 878.104 382.471 881.052 380.689 883.868 381.035 887.964 381.539 889.754 389.246 897.717 395.096 898.289 390.413 898.102 386.111 897.184 382.907 896.525 381.521 896.097 379.206 896.252 377.917 896.626 374.872 899.142 372.805 902.184 373.18 905.23 373.554 907.286 376.178 906.911 379.228 906.753 380.513 905.694 382.406 904.802 383.843 902.876 386.935 901.95 390.625 901.227 395.528 913.406 390.247 912.912 384.595 918.064 385.229 920.991 385.589 923.28 388.249 922.924 391.176 922.002 398.671 916.268 393.095 902.728 398.804 913.492 407.02 921.678 403.268 920.717 411.113 920.328 414.274 917.391 415.937 914.579 415.591 912.707 415.364 911.037 414.443 909.15 410.411 908.02 408.013 904.762 404.521 900.363 401.605 899.186 411.21 902.008 416.311 901.677 419.004Z" fill="#562BB7"/><path d="M640.061 61.6169C648.399 61.6169 655.271 64.3093 660.678 69.6892 666.086 75.0701 668.789 81.796 668.789 89.8682 668.789 96.9023 666.672 103.015 662.435 108.21 658.198 113.404 653.1 116.509 647.132 117.521 648.356 121.062 650.264 123.726 652.848 125.513 655.43 127.295 658.666 128.188 662.558 128.188 663.62 128.188 664.757 128.081 665.952 127.869L665.952 130.307C661.931 131.318 658.335 131.823 655.163 131.823 650.21 131.823 645.782 130.613 641.876 128.188 637.974 125.765 635.037 122.208 633.066 117.521 626.513 116.137 621.231 112.926 617.222 107.891 613.212 102.856 611.209 96.8483 611.209 89.8686 611.209 81.7715 613.927 75.037 619.362 69.669 624.795 64.3003 631.695 61.6169 640.061 61.6169M640.022 115.281C644.068 115.281 647.225 113.751 649.49 110.688 652.766 106.292 654.407 99.6865 654.407 90.8662 654.407 82.1822 653.378 75.8963 651.329 72.0065 648.77 67.1058 645 64.6564 640.022 64.6564 635.223 64.6564 631.521 67.1458 628.911 72.1271 626.727 76.3096 625.634 82.2625 625.634 89.9888 625.634 99.2578 627.271 106.133 630.55 110.607 632.839 113.723 635.996 115.281 640.022 115.281M640.061 58.1864C630.798 58.1864 623.024 61.2292 616.952 67.2293 610.866 73.2391 607.779 80.8567 607.779 89.8679 607.779 97.6115 610.053 104.394 614.538 110.027 618.683 115.231 624.093 118.738 630.639 120.468 632.868 125.025 636.034 128.598 640.068 131.101 644.5 133.855 649.58 135.252 655.163 135.252 658.605 135.252 662.518 134.707 666.788 133.632L669.383 132.98 669.383 130.306 669.383 127.868 669.383 123.776 665.355 124.49C664.354 124.668 663.414 124.757 662.558 124.757 659.397 124.757 656.787 124.061 654.796 122.688 653.712 121.939 652.787 120.986 652.013 119.808 656.985 118.097 661.373 114.938 665.096 110.376 669.822 104.581 672.22 97.6799 672.22 89.8672 672.22 80.8873 669.153 73.2809 663.098 67.2559 657.046 61.2378 649.295 58.1864 640.061 58.1864L640.061 58.1864ZM640.022 111.851C637.088 111.851 634.956 110.811 633.312 108.576 630.494 104.729 629.065 98.4737 629.065 89.9885 629.065 82.8572 630.037 77.3824 631.951 73.7143 634.595 68.6689 637.823 68.0854 640.022 68.0854 643.701 68.0854 646.329 69.8346 648.287 73.593 650.073 76.9817 650.976 82.7881 650.976 90.8654 650.976 98.887 649.551 104.866 646.739 108.638 645.116 110.834 642.984 111.851 640.022 111.851L640.022 111.851Z" fill="#562BB7"/><path d="M829.198 503.629 830.343 504.569C828.755 506.502 827.859 507.967 827.654 508.95 827.445 509.936 827.52 510.804 827.87 511.556 828.215 512.305 829.522 513.612 831.79 515.47L858.981 537.764C861.249 539.622 862.79 540.652 863.603 540.857 863.873 540.922 864.15 540.958 864.428 540.958 865 540.958 865.594 540.817 866.213 540.54 867.138 540.126 868.388 538.963 869.957 537.048L871.098 537.984 856.126 556.25C851.194 562.259 846.586 565.7 842.298 566.561 841.244 566.773 840.221 566.878 839.235 566.878 836.196 566.878 833.468 565.884 831.048 563.897 828.33 561.668 826.692 558.914 826.142 555.638 825.591 552.359 826.178 548.953 827.909 545.411 829.058 543.01 831.578 539.428 835.476 534.668L823.859 525.143C821.595 523.282 820.05 522.252 819.237 522.05 818.974 521.982 818.704 521.95 818.427 521.95 817.851 521.95 817.246 522.094 816.616 522.378 815.684 522.803 814.438 523.962 812.886 525.859L811.742 524.92 829.198 503.629M847.306 557.089C847.475 557.089 847.641 557.082 847.803 557.071 850.362 556.895 852.749 555.455 854.96 552.758L855.996 551.491 837.888 536.645C837.291 537.289 836.848 537.786 836.56 538.139 834.501 540.652 833.658 543.2 834.04 545.785 834.418 548.366 836.171 550.944 839.303 553.511 842.212 555.898 844.883 557.089 847.306 557.089M828.723 498.802 826.548 501.455 809.092 522.745 806.918 525.398 809.567 527.573 810.712 528.509 813.365 530.687 815.543 528.03C817.282 525.906 818.016 525.514 818.045 525.496 818.211 525.424 818.319 525.395 818.38 525.384 818.672 525.535 819.582 526.068 821.685 527.792L830.681 535.169C827.783 538.87 825.857 541.75 824.813 543.935 822.786 548.082 822.092 552.222 822.761 556.207 823.449 560.311 825.504 563.789 828.874 566.55 831.912 569.041 835.397 570.308 839.235 570.308 840.444 570.308 841.701 570.179 842.972 569.923 848.109 568.894 853.278 565.132 858.776 558.425L873.752 540.158 875.926 537.505 873.273 535.331 872.132 534.395 869.478 532.22 867.304 534.874C865.558 537.005 864.827 537.401 864.798 537.419 864.633 537.491 864.525 537.516 864.471 537.523 864.183 537.379 863.276 536.85 861.155 535.111L833.968 512.816C831.866 511.099 831.171 510.318 830.973 510.066 830.966 509.994 830.966 509.864 831.009 509.656 831.012 509.648 831.257 508.864 832.996 506.743L835.17 504.094 832.521 501.919 831.376 500.98 828.723 498.802 828.723 498.802ZM847.306 553.658C845.726 553.658 843.713 552.69 841.481 550.861 839.08 548.892 837.68 546.966 837.431 545.288 837.251 544.05 837.561 542.794 838.374 541.476L851.082 551.894C849.909 552.978 848.732 553.568 847.565 553.648 847.482 553.655 847.392 553.658 847.306 553.658L847.306 553.658Z" fill="#562BB7"/><path d="M445.898 496.552 478.771 533.732 419.272 543.773 424.591 549.796C426.655 552.128 428.086 553.604 428.878 554.22 430.373 555.386 432.047 556.243 433.897 556.79 435.069 557.136 436.266 557.309 437.491 557.309 438.206 557.309 438.932 557.251 439.665 557.132 441.661 556.812 443.833 556.013 446.197 554.746L447.178 555.851 434.315 565.254 405.969 533.189 465.381 523.17 458.552 515.444C455.324 511.794 452.835 509.443 451.087 508.392 448.27 506.653 445.14 505.778 441.694 505.764 441.674 505.764 441.653 505.764 441.632 505.764 438.209 505.764 434.598 506.855 430.806 509.044L429.774 507.877 445.898 496.552M446.436 491.983 443.927 493.747 427.803 505.069 424.665 507.272 427.203 510.145 428.234 511.315 430.09 513.418 432.519 512.014C435.766 510.142 438.832 509.191 441.632 509.191 444.508 509.206 446.997 509.897 449.286 511.308 450.309 511.924 452.268 513.515 455.982 517.716L458.72 520.816 405.397 529.808 399.308 530.834 403.399 535.464 431.744 567.526 433.815 569.866 436.338 568.022 449.201 558.619 452.242 556.394 449.743 553.576 448.763 552.47 446.963 550.436 444.571 551.722C442.555 552.805 440.722 553.486 439.121 553.745 438.567 553.835 438.02 553.878 437.49 553.878 436.601 553.878 435.719 553.752 434.866 553.5 433.42 553.072 432.15 552.42 430.988 551.513 430.699 551.29 429.763 550.462 427.159 547.52L425.929 546.127 479.341 537.113 485.431 536.087 481.34 531.461 448.466 494.28 446.436 491.983 446.436 491.983Z" fill="#562BB7"/><path d="M876.171 123.828C813.138 60.795 729.266 26.0816 640 26.0816 550.736 26.0816 466.862 60.795 403.829 123.828 340.796 186.862 306.082 270.736 306.082 360 306.082 449.266 340.796 533.138 403.829 596.171 466.054 658.397 548.589 693.025 636.57 693.9L643.431 693.918 643.431 693.9C731.411 693.025 813.948 658.397 876.171 596.171 939.203 533.138 973.918 449.266 973.918 360 973.918 270.736 939.203 186.862 876.171 123.828ZM963.262 310.127 839.886 327.839C836.499 306.667 829.662 285.69 819.136 265.692 812.364 252.827 804.333 240.914 795.254 230.044L889.325 148.552C927.59 193.602 953.891 249.11 963.262 310.127ZM731.12 533.066C703.086 547.826 671.637 555.628 640.173 555.628 567.254 555.628 500.873 515.578 466.933 451.109 416.696 355.681 453.46 237.17 548.888 186.929 576.92 172.173 608.366 164.373 639.827 164.373 712.745 164.373 779.129 204.421 813.066 268.887 863.304 364.313 826.541 482.821 731.12 533.066ZM884.832 143.37 790.772 224.854C766.385 197.591 735.134 177.536 700.336 166.702L735.443 47.1431C793.828 64.9883 845.312 98.7527 884.832 143.37ZM640 32.9407C670.787 32.9407 700.599 37.2168 728.862 45.2063L693.752 164.773C676.446 160.022 658.342 157.514 639.828 157.514 621.765 157.514 603.713 160.006 586.264 164.822L551.14 45.2059C579.405 37.2172 609.214 32.9407 640 32.9407ZM544.56 47.1416 579.68 166.748C567.976 170.407 556.586 175.126 545.693 180.859 523.782 192.395 504.867 207.414 489.251 224.872L395.169 143.371C434.689 98.7527 486.174 64.9876 544.56 47.1416ZM390.674 148.552 484.769 230.066C461.269 258.217 445.998 292.14 440.208 327.853L316.738 310.127C326.111 249.11 352.409 193.602 390.674 148.552ZM312.941 360C312.941 345.393 313.902 331.023 315.766 316.917L439.23 334.643C434.731 369.875 439.416 406.573 454.462 440.982L341.109 492.761C323.004 452.167 312.941 407.243 312.941 360ZM343.968 498.996 457.323 447.217C458.458 449.59 459.628 451.955 460.865 454.306 476.947 484.855 500.083 510.088 527.672 528.491L460.39 633.211C410.287 600.163 369.76 553.702 343.968 498.996ZM466.155 636.93 533.442 532.199C563.898 551.048 599.352 561.773 636.571 562.424L636.571 687.042C574.034 686.394 515.641 668.106 466.155 636.93ZM643.431 687.042 643.431 562.435C674.913 561.917 706.265 553.903 734.313 539.136 738.496 536.933 742.56 534.593 746.524 532.145L813.844 636.93C764.358 668.106 705.966 686.394 643.431 687.042ZM819.611 633.211 752.306 528.451C783.489 507.694 807.321 479.34 822.621 447.188L936.032 498.996C910.241 553.702 869.712 600.163 819.611 633.211ZM825.454 440.942C839.865 407.83 845.405 371.07 840.844 334.632L964.234 316.917C966.099 331.024 967.06 345.393 967.06 360 967.06 407.243 956.998 452.167 938.894 492.761L825.454 440.942Z" fill="#562BB7"/><path d="M640.004 402.354 568.734 364.622 568.734 425.174 568.996 425.174C572.013 441.011 602.997 462.704 640.36 462.704 677.717 462.704 707.986 441.011 711.003 425.174L711.266 425.174 711.266 364.622 640.004 402.354Z" fill="#562BB7"/><path d="M752.277 380.797C754.455 379.264 755.884 376.736 755.884 373.874 755.884 370.933 754.376 368.341 752.093 366.822L752.093 333.638 763.894 327.391 640.004 257.297 516.109 327.39 640.004 392.987 742.726 338.597 742.726 366.822C740.444 368.341 738.935 370.933 738.935 373.874 738.935 376.733 740.368 379.264 742.542 380.797L741.03 384.926 734.651 402.354 747.413 402.354 760.161 402.354 753.789 384.926 752.277 380.797Z" fill="#562BB7"/></g></svg>