<svg width="480" height="480" xmlns="http://www.w3.org/2000/svg" xmlns:xlink="http://www.w3.org/1999/xlink" xml:space="preserve" overflow="hidden"><g transform="translate(-385 11)"><path d="M754.5-1 754.5-1C758 12 767.5 23 780 29L780 29C767.5 35 758.5 46 754.5 59L754.5 59C751 46 741.5 35 729 29L729 29C741.5 23 751 12 754.5-1Z" fill="#414cda"/><path d="M434.5 109 434.5 109C438 122 447.5 133 460 139L460 139C447.5 145 438.5 156 434.5 169L434.5 169C431 156 421.5 145 409 139L409 139C421.5 133 431 122 434.5 109Z" fill="#414cda"/><path d="M484 9 484 9C487 20 495 29 505 34L505 34C494.5 39 487 48 484 59L484 59C481 48 473 39 463 34L463 34C473 29 481 20 484 9Z" fill="#414cda"/><path d="M814 89 814 89C817 100 825 109 835 114L835 114C824.5 119 817 128 814 139L814 139C811 128 803 119 793 114L793 114C803 109 811 100 814 89Z" fill="#414cda"/><path d="M625 186.5C621 186.5 617.5 183 617.5 179L617.5 129C617.5 125 621 121.5 625 121.5 629 121.5 632.5 125 632.5 129L632.5 179C632.5 183 629 186.5 625 186.5Z" fill="#414cda"/><path d="M625 106.5C621 106.5 617.5 103 617.5 99L617.5 59C617.5 55 621 51.5 625 51.5 629 51.5 632.5 55 632.5 59L632.5 99C632.5 103 629 106.5 625 106.5Z" fill="#414cda"/><path d="M625 36.5C621 36.5 617.5 33 617.5 29L617.5 9C617.5 5 621 1.5 625 1.5 629 1.5 632.5 5 632.5 9L632.5 29C632.5 33 629 36.5 625 36.5Z" fill="#414cda"/><path d="M680 151.5C679.5 151.5 679 151.5 678.5 151.5 674.5 150.5 672 146.5 673 142.5L681.5 103.5C682.5 99.5 686.5 97 690.5 98 694.5 99 697 103 696 107L687.5 146C686.5 149 683.5 151.5 680 151.5Z" fill="#414cda"/><path d="M695 83C694.5 83 694 83 693.5 83 689.5 82 687 78 688 74L688 74 694.5 44.5C695.5 40.5 699 38 703.5 38.5 707.5 39.5 710 43 709.5 47.5 709.5 47.5 709.5 47.5 709.5 48L703 77.5C701.5 80.5 698.5 83 695 83Z" fill="#414cda"/><path d="M730 141.5C726 141.5 722.5 138 722.5 134 722.5 132.5 723 131 724 129.5L758 80C760.5 76.5 765 76 768.5 78.5 771.5 81 772.5 85 770.5 88.5L736.5 138C735 140.5 732.5 141.5 730 141.5Z" fill="#414cda"/><path d="M570 151.5C566.5 151.5 563.5 149 562.5 145.5L552 96.5C551 92.5 554 88.5 558 87.5 562 86.5 566 89 566.5 93L577 142C578 146 575.5 150 571.5 151 571 151.5 570.5 151.5 570 151.5Z" fill="#414cda"/><path d="M553 73.5C549.5 73.5 546.5 71 545.5 67.5L541.5 48C540.5 44 543 40 547 39 551 38 555 40.5 556 44.5 556 44.5 556 44.5 556 45L560 64.5C561 68.5 558.5 72.5 554.5 73.5L554.5 73.5C554 73.5 553.5 73.5 553 73.5L553 73.5Z" fill="#414cda"/><path d="M520 141.5C517.5 141.5 515 140.5 514 138.5L480 89C478 85.5 479 81 482.5 78.5 486 76.5 490 77 492.5 80.5L526.5 130C529 133.5 528 138 524.5 140.5 523 141 521.5 141.5 520 141.5Z" fill="#414cda"/><path d="M844 398.5 829 236.5C828.5 231.5 824 227.5 819 227.5 817 227.5 814 227.5 811.5 227.5L809 198.5 800 198C792.5 197.5 785 198 778 198.5L775.5 171.5 768 170C715.5 163.5 663 181 625 218 587 181 534.5 163.5 482 170L474.5 171.5 472 198.5C464.5 198 457.5 197.5 450 198L441.5 198.5 439 227.5C436 227.5 433.5 227.5 431.5 227.5 426.5 227.5 422 231.5 421.5 236.5L406.5 398.5C405.5 404 409.5 409 415 409.5 415.5 409.5 416 409.5 416.5 409.5 447 408.5 532.5 410.5 602 456 605.5 458 609 459.5 613 459.5L638 459.5C642 459.5 645.5 458.5 648.5 456.5 721.5 411 804.5 409 834 410 839.5 410 844 406 844.5 400.5 844 399 844 399 844 398.5ZM635 236C667 203 711.5 186 757 188.5L770.5 343.5C747 348 686 363 635 407L635 236ZM493 189C538.5 186.5 583 203.5 615 236.5L615 407.5C564 363.5 503 348.5 479.5 344L493 189ZM445 374 460 217.5C463 217.5 466.5 218 470.5 218L458 361 467.5 362C468.5 362 553 373 612 431.5L612 431.5C546.5 381.5 473.5 375 445 374ZM638 432.5 638 432.5C698 373.5 782 362 782.5 362L792 361 779.5 218C783.5 217.5 787 217.5 790 217.5L805 374C776.5 375 703.5 382 638 432.5Z" fill="#414cda"/></g></svg>