<svg width="480" height="480" xmlns="http://www.w3.org/2000/svg" xmlns:xlink="http://www.w3.org/1999/xlink" xml:space="preserve" overflow="hidden"><g transform="translate(76 -449)"><path d="M152.05 789.7C152.05 802.237 141.887 812.4 129.35 812.4 116.813 812.4 106.65 802.237 106.65 789.7 106.65 777.163 116.813 767 129.35 767 141.887 767 152.05 777.163 152.05 789.7Z" fill="#414cda"/><path d="M174 864 174 841.3C173.926 837.763 172.276 834.443 169.5 832.25 162.977 827.222 155.514 823.55 147.55 821.45 141.539 819.605 135.288 818.661 129 818.65 122.719 818.747 116.479 819.688 110.45 821.45 102.575 823.781 95.1525 827.433 88.5 832.25 85.724 834.443 84.074 837.763 84 841.3L84 864Z" fill="#414cda"/><path d="M251.35 789.7C251.35 802.237 241.187 812.4 228.65 812.4 216.113 812.4 205.95 802.237 205.95 789.7 205.95 777.163 216.113 767 228.65 767 241.187 767 251.35 777.163 251.35 789.7Z" fill="#414cda"/><path d="M274 864 274 841.3C273.926 837.763 272.276 834.443 269.5 832.25 262.977 827.222 255.513 823.55 247.55 821.45 241.539 819.605 235.288 818.661 229 818.65 222.719 818.747 216.479 819.688 210.45 821.45 202.575 823.781 195.152 827.433 188.5 832.25 185.724 834.443 184.074 837.763 184 841.3L184 864Z" fill="#414cda"/><path d="M351.35 789.7C351.35 802.237 341.187 812.4 328.65 812.4 316.113 812.4 305.95 802.237 305.95 789.7 305.95 777.163 316.113 767 328.65 767 341.187 767 351.35 777.163 351.35 789.7Z" fill="#414cda"/><path d="M374 864 374 841.3C373.926 837.763 372.276 834.443 369.5 832.25 362.977 827.222 355.513 823.55 347.55 821.45 341.539 819.605 335.288 818.661 329 818.65 322.719 818.747 316.48 819.688 310.45 821.45 302.575 823.781 295.152 827.433 288.5 832.25 285.724 834.443 284.074 837.763 284 841.3L284 864Z" fill="#414cda"/><path d="M61.1 579.8C61.1 596.203 47.8029 609.5 31.4 609.5 14.9971 609.5 1.7 596.203 1.7 579.8 1.7 563.397 14.9971 550.1 31.4 550.1 47.8029 550.1 61.1 563.397 61.1 579.8Z" fill="#414cda"/><path d="M206.55 568.35C203.611 565.453 198.889 565.453 195.95 568.35L131.35 632.95C126.188 631.493 120.639 632.904 116.8 636.65 115.75 637.7 97.1 668.2 97.1 668.2L91.5 644.35C90.7585 641.275 89.2245 638.448 87.05 636.15 77.8345 628.701 67.2285 623.16 55.85 619.85 47.806 618.13 39.6225 617.142 31.4 616.9 23.1045 617.028 14.8635 618.272 6.9 620.6-4.5815 623.61-15.2315 629.183-24.25 636.9-26.444 639.183-27.9813 642.016-28.7 645.1-28.7 645.1-50.25 735.6-50.25 737.1-50.25 745.385-43.5342 752.1-35.25 752.1-28.611 751.93-22.8745 747.414-21.15 741L-5.55 676.45-5.55 884 24 884 24 750.45 39 750.45 39 884 68.5 884 68.5 675.5 74 699C74.3815 700.625 75.461 701.997 76.95 702.75 82.6995 707.163 89.704 709.632 96.95 709.8 101.668 710.461 106.343 708.337 108.95 704.35L139.45 654.35C141.4 651.276 142.131 647.585 141.5 644L206.5 579C209.444 576.068 209.466 571.309 206.55 568.35Z" fill="#414cda"/><path d="M309 499 64 499C52.9545 499 44 507.954 44 519L44 537C51.645 539.081 58.566 543.234 64 549L64 519 309 519 309 684 138.35 684 126.15 704 309 704C320.046 704 329 695.046 329 684L329 519C329 507.954 320.046 499 309 499Z" fill="#414cda"/></g></svg>