<svg width="480" height="480" xmlns="http://www.w3.org/2000/svg" xmlns:xlink="http://www.w3.org/1999/xlink" xml:space="preserve" overflow="hidden"><g transform="translate(-876 64)"><path d="M1161 331C1152.5 331 1146 324.5 1146 316 1146 307.5 1152.5 301 1161 301 1169.5 301 1176 307.5 1176 316 1176 324.5 1169.5 331 1161 331ZM1111 331C1102.5 331 1096 324.5 1096 316 1096 307.5 1102.5 301 1111 301 1119.5 301 1126 307.5 1126 316 1126 324.5 1119.5 331 1111 331ZM1061 331C1052.5 331 1046 324.5 1046 316 1046 307.5 1052.5 301 1061 301 1069.5 301 1076 307.5 1076 316 1076 324.5 1069.5 331 1061 331ZM1011 331C1002.5 331 996 324.5 996 316 996 307.5 1002.5 301 1011 301 1019.5 301 1026 307.5 1026 316 1026 324.5 1019.5 331 1011 331ZM961 331C952.5 331 946 324.5 946 316 946 307.5 952.5 301 961 301 969.5 301 976 307.5 976 316 976 324.5 969.5 331 961 331ZM1161 281 961 281C941.5 281 926 296.5 926 316 926 335.5 941.5 351 961 351L1161 351C1180.5 351 1196 335.5 1196 316 1196 296.5 1180.5 281 1161 281Z" fill="#414cda"/><path d="M1086 131 1158.5 131 1165 181 1086 181 1086 131ZM1264.5 115 1143-6C1139-10 1133-10 1129-6L939 184C938.5 184.5 938 185 937.5 185.5L937 186C937 186.5 936.5 186.5 936.5 187 936.5 187.5 936.5 187.5 936 188 936 188.5 936 188.5 935.5 189 935.5 189.5 935.5 190.5 935.5 191L935.5 251C935.5 256.5 940 261 945.5 261L1172.5 261 1176 261 1176 260.5C1186.5 259 1194.5 249 1193 238L1178.5 128C1177 118 1168.5 110.5 1158.5 110.5L1086 110.5C1075 110.5 1066 119.5 1066 130.5L1066 180.5 970 180.5 1136 15 1248 127 1226 238.5C1261 245.5 1295.5 222.5 1302.5 187.5 1308 157 1292 127 1264.5 115Z" fill="#414cda"/></g></svg>