<svg width="480" height="480" xmlns="http://www.w3.org/2000/svg" xmlns:xlink="http://www.w3.org/1999/xlink" xml:space="preserve" overflow="hidden"><g transform="translate(-810 -369)"><path d="M1195.85 615.95C1220.7 615.95 1240.85 595.803 1240.85 570.95 1240.85 546.097 1220.7 525.95 1195.85 525.95 1171 525.95 1150.85 546.097 1150.85 570.95 1150.85 573.211 1151.04 575.468 1151.4 577.7L1099.35 599.45C1090.02 582.978 1073.7 571.644 1055 568.65L1055 512.75C1079.23 507.227 1094.4 483.107 1088.88 458.875 1083.35 434.644 1059.23 419.478 1035 425 1010.77 430.523 995.602 454.644 1001.12 478.875 1004.97 495.738 1018.14 508.906 1035 512.75L1035 568.6C1016.48 571.595 1000.29 582.757 990.9 599L940.25 577.85C944.047 553.289 927.214 530.3 902.654 526.503 878.093 522.706 855.104 539.539 851.307 564.099 847.51 588.661 864.342 611.65 888.903 615.447 905.884 618.072 922.878 610.798 932.7 596.7L983.8 617.6C980.177 635.102 984.256 653.317 995 667.6L953.65 709.35C932.5 696.299 904.774 702.865 891.723 724.015 878.672 745.166 885.238 772.891 906.388 785.942 927.539 798.993 955.264 792.427 968.315 771.277 977.437 756.495 977.236 737.783 967.8 723.2L1009.45 681.55C1030.84 696.41 1059.21 696.41 1080.6 681.55L1122.25 723.15C1108.74 744.008 1114.69 771.871 1135.55 785.385 1156.41 798.898 1184.27 792.945 1197.78 772.087 1211.3 751.229 1205.34 723.365 1184.48 709.852 1169.8 700.336 1150.92 700.198 1136.1 709.5L1095 667.85C1103.25 657.052 1107.71 643.838 1107.7 630.25 1107.68 626.172 1107.28 622.104 1106.5 618.1L1159.05 596.6C1167.42 608.67 1181.16 615.893 1195.85 615.95ZM1195.85 543.4C1202.84 543.4 1208.5 549.063 1208.5 556.05 1208.5 563.036 1202.84 568.7 1195.85 568.7 1188.86 568.7 1183.2 563.036 1183.2 556.05 1183.2 556.034 1183.2 556.016 1183.2 556 1183.25 549.044 1188.89 543.427 1195.85 543.4ZM1170.85 584.4C1170.9 582.433 1171.84 580.595 1173.4 579.4 1177.14 576.732 1181.3 574.704 1185.7 573.4 1189.08 572.417 1192.58 571.896 1196.1 571.85 1199.62 571.855 1203.13 572.377 1206.5 573.4 1210.95 574.578 1215.13 576.615 1218.8 579.4 1220.33 580.614 1221.25 582.445 1221.3 584.4L1221.3 594 1170.6 594ZM896.1 543.4C903.086 543.4 908.75 549.063 908.75 556.05 908.75 563.036 903.086 568.7 896.1 568.7 889.114 568.7 883.45 563.036 883.45 556.05 883.45 556.034 883.45 556.016 883.45 556 883.502 549.141 888.992 543.562 895.85 543.4ZM921.1 594.05 870.6 594.05 870.6 584.4C870.649 582.433 871.587 580.595 873.15 579.4 876.889 576.732 881.046 574.704 885.45 573.4 888.831 572.417 892.329 571.896 895.85 571.85 899.374 571.855 902.878 572.377 906.25 573.4 910.703 574.578 914.881 576.615 918.55 579.4 920.083 580.614 920.998 582.445 921.05 584.4ZM930 720.1C936.959 720.1 942.6 725.741 942.6 732.7 942.6 739.659 936.959 745.3 930 745.3 923.041 745.3 917.4 739.659 917.4 732.7 917.4 725.741 923.041 720.1 930 720.1ZM955 770.7 905 770.7 905 761.05C905.044 759.094 905.961 757.26 907.5 756.05 911.235 753.388 915.394 751.376 919.8 750.1 923.113 749.106 926.542 748.551 930 748.45 933.526 748.467 937.031 749.006 940.4 750.05 944.851 751.206 949.031 753.228 952.7 756 954.239 757.209 955.156 759.043 955.2 761ZM1045 441.35C1051.96 441.35 1057.6 446.992 1057.6 453.95 1057.6 460.909 1051.96 466.55 1045 466.55 1038.06 466.55 1032.43 460.939 1032.4 454 1032.37 447.042 1037.99 441.378 1044.95 441.35 1044.97 441.35 1044.98 441.35 1045 441.35ZM1020 491.95 1020 482.3C1020.04 480.344 1020.96 478.509 1022.5 477.3 1026.24 474.638 1030.39 472.626 1034.8 471.35 1038.11 470.356 1041.54 469.801 1045 469.7 1048.53 469.716 1052.03 470.256 1055.4 471.3 1059.85 472.456 1064.03 474.478 1067.7 477.25 1069.24 478.46 1070.16 480.293 1070.2 482.25L1070.2 491.9ZM1045 591.95C1054.69 591.922 1062.57 599.758 1062.6 609.45 1062.63 619.143 1054.79 627.022 1045.1 627.05 1035.41 627.078 1027.53 619.242 1027.5 609.55 1027.5 609.534 1027.5 609.516 1027.5 609.5 1027.5 599.827 1035.33 591.978 1045 591.95ZM1080 662.3 1010 662.3 1010 649C1010.07 646.262 1011.35 643.696 1013.5 642 1018.69 638.273 1024.47 635.45 1030.6 633.65 1035.28 632.271 1040.12 631.515 1045 631.4 1049.9 631.414 1054.76 632.139 1059.45 633.55 1065.65 635.161 1071.47 638 1076.55 641.9 1078.71 643.628 1079.98 646.235 1080 649ZM1160 720.1C1166.96 720.1 1172.6 725.741 1172.6 732.7 1172.6 739.659 1166.96 745.3 1160 745.3 1153.04 745.3 1147.4 739.659 1147.4 732.7 1147.4 725.741 1153.04 720.1 1160 720.1ZM1135 761.05C1135.04 759.094 1135.96 757.26 1137.5 756.05 1141.24 753.388 1145.39 751.376 1149.8 750.1 1153.11 749.106 1156.54 748.551 1160 748.45 1163.53 748.467 1167.03 749.006 1170.4 750.05 1174.85 751.206 1179.03 753.228 1182.7 756 1184.24 757.209 1185.16 759.043 1185.2 761L1185.2 770.65 1135 770.65Z" fill="#414cda"/></g></svg>