<svg width="480" height="480" xmlns="http://www.w3.org/2000/svg" xmlns:xlink="http://www.w3.org/1999/xlink" xml:space="preserve" overflow="hidden"><g transform="translate(95 11)"><path d="M219 295.5C221.5 290.5 220 284.5 215 282 210 279.5 204 281 201.5 286L181.5 321.5 195 268C196.5 262.5 193 257 187.5 256 182 254.5 176.5 258 175.5 263.5L164 309.5 164 259.5C164 254 159.5 249.5 154 249.5 148.5 249.5 144 254 144 259.5L144 313 132.5 263.5C131.5 258 126 255 120.5 256 115 257 112 262.5 113 268L127 327.5C126.5 334.5 125 341.5 123.5 347.5 123.5 347.5 123.5 347 123 347 114.5 334 101 322.5 88 319 83 317.5 78 320.5 76.5 325.5 75 330.5 78 335.5 83 337 89.5 338.5 95.5 348 102 358 110 370.5 120 385 135 393.5L135 447 179 447 179 390.5C195.5 382 197.5 346.5 198 333L219 295.5Z" fill="#562BB7"/><path d="M42.5 299.5 86 300C86 300 86 300 86 300 91.5 300 96 295.5 96 290 96 284.5 91.5 280 86 280L45.5 279.5 98.5 266C104 264.5 107 259 105.5 254 104 248.5 98.5 245.5 93.5 247L47.5 259 91.5 235C96.5 232.5 98 226.5 95.5 221.5 93 216.5 87 215 82 217.5L35 242.5 73 209C77 205.5 77.5 199 74 195 70.5 191 64 190.5 60 194L14 234C7.5 237 1 239-5.5 240-5.5 240-5.5 239.5-5 239.5 2.5 225.5 6 208.5 3 195.5 2 190.5-3.5 187.5-8.5 188.5-13.5 189.5-16.5 195-15.5 200-14 206.5-19 216-24.5 226.5-31.5 239.5-39.5 255-40 272.5L-87 298-66 336.5-16.5 310C-1.5 320.5 30.5 305.5 42.5 299.5Z" fill="#562BB7"/><path d="M48 136.5 58.5 178.5C59.5 183 63.5 186 68 186 69 186 69.5 186 70.5 185.5 76 184 79 179 78 173.5L68.5 134 95 181.5C97 185 100 186.5 104 186.5 105.5 186.5 107.5 186 109 185 114 182.5 115.5 176 113 171.5L90 130 124 166.5C126 168.5 128.5 169.5 131.5 169.5 134 169.5 136.5 168.5 138.5 167 142.5 163 142.5 157 139 153L102.5 114 145 142.5C146.5 143.5 148.5 144 150.5 144 153.5 144 157 142.5 159 139.5 162 135 161 128.5 156.5 125.5L105.5 91.5C101 86 97.5 80 94.5 74.5 94.5 74.5 95 74.5 95 74.5 110 78 127.5 77.5 139.5 71 144 68.5 145.5 63 143 58.5 140.5 54 135 52.5 130.5 55 125 58 114 55.5 102.5 53 88 49.5 71 45.5 54 50L17.5 11-14.5 41 24 82C16 99.5 38.5 127 48 136.5Z" fill="#562BB7"/><path d="M377 333 339 291.5C345.5 274 323 246.5 314 236.5L304 194.5C302.5 189 297.5 186 292 187 286.5 188.5 283.5 193.5 284.5 199L294 238.5 267.5 190.5C265 185.5 259 184 254 186.5 249 189 247.5 195 250 200L273 242 239 205.5C235 201.5 229 201 225 205 221 209 220.5 215 224.5 219L261 258.5 219 230C214.5 227 208 228 205 232.5 202 237 203 243.5 207.5 246.5L258 281C262.5 286.5 266 292.5 269 298 269 298 268.5 298 268.5 298 253.5 294.5 236 295 224 301.5 219.5 304 217.5 309.5 220 314 222.5 318.5 228 320.5 232.5 318 238 315 249 317.5 260.5 320.5 275 324 292 328 309 324L345 363 377 333Z" fill="#562BB7"/><path d="M171.5 119C172.5 119 173.5 119 175 118.5L213 105 168 136C163.5 139 162.5 145.5 165.5 150 167.5 153 170.5 154.5 173.5 154.5 175.5 154.5 177.5 154 179 152.5L218 125.5 185 163C181.5 167 182 173.5 186 177 188 178.5 190 179.5 192.5 179.5 195.5 179.5 198 178.5 200 176L235.5 135.5 211.5 180.5C209 185.5 210.5 191.5 215.5 194 217 195 218.5 195 220 195 223.5 195 227 193 229 189.5L258 135.5C263 130.5 268.5 126.5 274 123 274 123 274 123.5 274 123.5 272 139 274.5 156.5 282 167.5 285 172 290.5 173 295 170 299.5 167 300.5 161.5 297.5 157 294 151.5 295.5 140.5 297 128.5 299 114 301 96.5 295.5 80L330.5 40 297.5 11 260.5 53.5C242.5 49 217.5 74.5 208.5 84L167.5 98.5C162.5 100.5 159.5 106 161.5 111.5 163.5 116.5 167.5 119 171.5 119Z" fill="#562BB7"/></g></svg>