<svg width="480" height="480" xmlns="http://www.w3.org/2000/svg" xmlns:xlink="http://www.w3.org/1999/xlink" xml:space="preserve" overflow="hidden"><g transform="translate(-390 -469)"><path d="M564.5 599 694.5 599 694.5 619 564.5 619Z" fill="#414cda"/><path d="M564.5 639 694.5 639 694.5 659 564.5 659Z" fill="#414cda"/><path d="M564.5 679 694.5 679 694.5 699 564.5 699Z" fill="#414cda"/><path d="M805 887 705 792 805 697 805 887ZM481 899 580 805.5 587 799C614 773.5 656.5 773.5 683.5 799L690.5 805.5 789 899 481 899ZM465 696.5 565 791.5 465 886.5 465 696.5ZM535 569 735 569 735 735.5 690 778.5C657.5 753.5 612.5 753.5 580 778.5L535 735.5 535 569ZM765 582.5 765 539 695 539 635 489 575 539 505 539 505 583 435 649.5 435 929 835 929 835 649.5 765 582.5Z" fill="#414cda"/></g></svg>